<?xml version="1.0" standalone="no"?>
<!DOCTYPE svg PUBLIC "-//W3C//DTD SVG 1.1//EN" "http://www.w3.org/Graphics/SVG/1.1/DTD/svg11.dtd" >
<svg>
<defs>
<font id="8 BIT WONDER" horiz-adv-x="250" >
<font-face units-per-em="100" ascent="80" descent="-20" />
<glyph unicode=" " horiz-adv-x="50" d="" />
<glyph unicode="#" horiz-adv-x="100" d="M100.000000000000000 0.000000000000000 C75.000000000000000 0.000000000000000 25.000000000000000 0.000000000000000 0.000000000000000 0.000000000000000 C0.000000000000000 25.000000000000000 0.000000000000000 75.000000000000000 0.000000000000000 100.000000000000000 C25.000000000000000 100.000000000000000 75.000000000000000 100.000000000000000 100.000000000000000 100.000000000000000 C100.000000000000000 75.000000000000000 100.000000000000000 25.000000000000000 100.000000000000000 0.000000000000000 zM83.333332999999996 16.666667000000000 C83.333333000000039 33.333333499999981 83.333333000000039 66.666666499999991 83.333333000000039 83.333332999999982 C66.666666500000019 83.333332999999982 33.333333499999981 83.333332999999982 16.666667000000018 83.333332999999982 C16.666667000000018 66.666666499999991 16.666667000000018 33.333333499999981 16.666667000000018 16.666667000000018 C33.333333499999981 16.666667000000018 66.666666500000019 16.666667000000018 83.333333000000039 16.666667000000018 z" />
<glyph unicode="(" horiz-adv-x="50" d="M50.000000000000000 0.000000000000000 C39.583333250000010 0.000000000000000 18.749999750000029 0.000000000000000 8.333332999999982 0.000000000000000 C8.333332999999982 2.083333250000010 8.333332999999982 6.249999749999972 8.333332999999982 8.333332999999982 C6.249999749999972 8.333332999999982 2.083333250000010 8.333332999999982 0.000000000000000 8.333332999999982 C0.000000000000000 24.999999750000029 0.000000000000000 58.333333250000010 0.000000000000000 75.000000000000000 C2.083333250000010 75.000000000000000 6.249999749999972 75.000000000000000 8.333332999999982 75.000000000000000 C8.333332999999982 77.083333250000010 8.333332999999982 81.249999750000001 8.333332999999982 83.333332999999982 C18.749999750000029 83.333332999999982 39.583333250000010 83.333332999999982 50.000000000000000 83.333332999999982 C50.000000000000000 79.166666499999991 50.000000000000000 70.833333500000009 50.000000000000000 66.666667000000018 C45.833333250000010 66.666667000000018 37.499999750000029 66.666667000000018 33.333332999999982 66.666667000000018 C33.333332999999982 54.166667000000018 33.333332999999982 29.166667000000018 33.333332999999982 16.666667000000018 C37.499999750000029 16.666667000000018 45.833333250000010 16.666667000000018 50.000000000000000 16.666667000000018 C50.000000000000000 12.500000249999971 50.000000000000000 4.166666749999990 50.000000000000000 0.000000000000000 z" />
<glyph unicode=")" horiz-adv-x="50" d="M50.000000000000000 8.333333000000000 C47.916666749999990 8.333332999999982 43.750000249999971 8.333332999999982 41.666667000000018 8.333332999999982 C41.666667000000018 6.249999749999972 41.666667000000018 2.083333250000010 41.666667000000018 0.000000000000000 C31.250000249999971 0.000000000000000 10.416666749999990 0.000000000000000 0.000000000000000 0.000000000000000 C0.000000000000000 4.166666749999990 0.000000000000000 12.500000249999971 0.000000000000000 16.666667000000018 C4.166666749999990 16.666667000000018 12.500000249999971 16.666667000000018 16.666667000000018 16.666667000000018 C16.666667000000018 29.166667000000018 16.666667000000018 54.166667000000018 16.666667000000018 66.666667000000018 C12.500000249999971 66.666667000000018 4.166666749999990 66.666667000000018 0.000000000000000 66.666667000000018 C0.000000000000000 70.833333500000009 0.000000000000000 79.166666499999991 0.000000000000000 83.333332999999982 C10.416666749999990 83.333332999999982 31.250000249999971 83.333332999999982 41.666667000000018 83.333332999999982 C41.666667000000018 81.249999750000001 41.666667000000018 77.083333250000010 41.666667000000018 75.000000000000000 C43.750000249999971 75.000000000000000 47.916666749999990 75.000000000000000 50.000000000000000 75.000000000000000 C50.000000000000000 58.333333250000010 50.000000000000000 24.999999750000029 50.000000000000000 8.333332999999982 z" />
<glyph unicode="*" horiz-adv-x="100" d="M83.333332999999996 73.333332999999996 C81.666666500000019 71.666666499999991 78.333333499999981 68.333333500000009 76.666666999999961 66.666667000000018 C75.833333499999981 66.666667000000018 74.166666500000019 66.666667000000018 73.333333000000039 66.666667000000018 C71.666666500000019 68.333333500000009 68.333333499999981 71.666666499999991 66.666666999999961 73.333332999999982 C66.666666999999961 74.166666499999991 66.666666999999961 75.833333500000009 66.666666999999961 76.666667000000018 C68.333333499999981 78.333333500000009 71.666666500000019 81.666666499999991 73.333333000000039 83.333332999999982 C74.166666500000019 83.333332999999982 75.833333499999981 83.333332999999982 76.666666999999961 83.333332999999982 C78.333333499999981 81.666666499999991 81.666666500000019 78.333333500000009 83.333333000000039 76.666667000000018 C83.333333000000039 75.833333500000009 83.333333000000039 74.166666499999991 83.333333000000039 73.333332999999982 zM66.666667000000004 55.000000000000000 C65.416666999999961 53.750000000000000 62.916666999999961 51.250000000000000 61.666666999999961 50.000000000000000 C60.000000249999971 50.000000000000000 56.666666749999990 50.000000000000000 55.000000000000000 50.000000000000000 C53.750000000000000 51.250000000000000 51.250000000000000 53.750000000000000 50.000000000000000 55.000000000000000 C50.000000000000000 56.666666749999990 50.000000000000000 60.000000249999971 50.000000000000000 61.666667000000018 C51.250000000000000 62.916667000000018 53.750000000000000 65.416667000000018 55.000000000000000 66.666667000000018 C56.666666749999990 66.666667000000018 60.000000249999971 66.666667000000018 61.666666999999961 66.666667000000018 C62.916666999999961 65.416667000000018 65.416666999999961 62.916667000000018 66.666666999999961 61.666667000000018 C66.666666999999961 60.000000249999971 66.666666999999961 56.666666749999990 66.666666999999961 55.000000000000000 zM50.000000000000000 36.666666999999997 C49.166666749999990 35.833333499999981 47.500000249999971 34.166666500000019 46.666666999999961 33.333332999999982 C44.166666999999961 33.333332999999982 39.166667000000018 33.333332999999982 36.666667000000018 33.333332999999982 C35.833333499999981 34.166666500000019 34.166666500000019 35.833333499999981 33.333332999999982 36.666667000000018 C33.333332999999982 39.166667000000018 33.333332999999982 44.166667000000018 33.333332999999982 46.666667000000018 C34.166666500000019 47.500000249999971 35.833333499999981 49.166666749999990 36.666667000000018 50.000000000000000 C39.166667000000018 50.000000000000000 44.166666999999961 50.000000000000000 46.666666999999961 50.000000000000000 C47.500000249999971 49.166666749999990 49.166666749999990 47.500000249999971 50.000000000000000 46.666667000000018 C50.000000000000000 44.166667000000018 50.000000000000000 39.166667000000018 50.000000000000000 36.666667000000018 zM16.666667000000000 73.333332999999996 C15.000000249999971 71.666666499999991 11.666666749999990 68.333333500000009 10.000000000000000 66.666667000000018 C9.166666749999990 66.666667000000018 7.500000250000028 66.666667000000018 6.666667000000018 66.666667000000018 C5.000000250000028 68.333333500000009 1.666666749999990 71.666666499999991 0.000000000000000 73.333332999999982 C0.000000000000000 74.166666499999991 0.000000000000000 75.833333500000009 0.000000000000000 76.666667000000018 C1.666666749999990 78.333333500000009 5.000000249999971 81.666666499999991 6.666667000000018 83.333332999999982 C7.500000250000028 83.333332999999982 9.166666749999990 83.333332999999982 10.000000000000000 83.333332999999982 C11.666666749999990 81.666666499999991 15.000000249999971 78.333333500000009 16.666667000000018 76.666667000000018 C16.666667000000018 75.833333500000009 16.666667000000018 74.166666499999991 16.666667000000018 73.333332999999982 zM33.333333000000003 55.000000000000000 C32.083332999999982 53.750000000000000 29.583332999999982 51.250000000000000 28.333332999999982 50.000000000000000 C26.666666500000019 50.000000000000000 23.333333499999981 50.000000000000000 21.666667000000018 50.000000000000000 C20.416667000000018 51.250000000000000 17.916667000000018 53.750000000000000 16.666667000000018 55.000000000000000 C16.666667000000018 56.666666749999990 16.666667000000018 60.000000249999971 16.666667000000018 61.666667000000018 C17.916667000000018 62.916667000000018 20.416667000000018 65.416667000000018 21.666667000000018 66.666667000000018 C23.333333499999981 66.666667000000018 26.666666500000019 66.666667000000018 28.333332999999982 66.666667000000018 C29.583332999999982 65.416667000000018 32.083332999999982 62.916667000000018 33.333332999999982 61.666667000000018 C33.333332999999982 60.000000249999971 33.333332999999982 56.666666749999990 33.333332999999982 55.000000000000000 zM66.666667000000004 21.666667000000000 C65.416666999999961 20.416667000000018 62.916666999999961 17.916667000000018 61.666666999999961 16.666667000000018 C60.000000249999971 16.666667000000018 56.666666749999990 16.666667000000018 55.000000000000000 16.666667000000018 C53.750000000000000 17.916667000000018 51.250000000000000 20.416667000000018 50.000000000000000 21.666667000000018 C50.000000000000000 23.333333499999981 50.000000000000000 26.666666500000019 50.000000000000000 28.333332999999982 C51.250000000000000 29.583332999999982 53.750000000000000 32.083332999999982 55.000000000000000 33.333332999999982 C56.666666749999990 33.333332999999982 60.000000249999971 33.333332999999982 61.666666999999961 33.333332999999982 C62.916666999999961 32.083332999999982 65.416666999999961 29.583332999999982 66.666666999999961 28.333332999999982 C66.666666999999961 26.666666500000019 66.666666999999961 23.333333499999981 66.666666999999961 21.666667000000018 zM83.333332999999996 6.666667000000000 C81.666666500000019 5.000000250000028 78.333333499999981 1.666666749999990 76.666666999999961 0.000000000000000 C75.833333499999981 0.000000000000000 74.166666500000019 0.000000000000000 73.333333000000039 0.000000000000000 C71.666666500000019 1.666666749999990 68.333333499999981 5.000000250000028 66.666666999999961 6.666667000000018 C66.666666999999961 7.500000250000028 66.666666999999961 9.166666749999990 66.666666999999961 10.000000000000000 C68.333333499999981 11.666666749999990 71.666666500000019 15.000000249999971 73.333333000000039 16.666667000000018 C74.166666500000019 16.666667000000018 75.833333499999981 16.666667000000018 76.666666999999961 16.666667000000018 C78.333333499999981 15.000000249999971 81.666666500000019 11.666666749999990 83.333333000000039 10.000000000000000 C83.333333000000039 9.166666749999990 83.333333000000039 7.500000250000028 83.333333000000039 6.666667000000018 zM33.333333000000003 21.666667000000000 C32.083332999999982 20.416667000000018 29.583332999999982 17.916667000000018 28.333332999999982 16.666667000000018 C26.666666500000019 16.666667000000018 23.333333499999981 16.666667000000018 21.666667000000018 16.666667000000018 C20.416667000000018 17.916667000000018 17.916667000000018 20.416667000000018 16.666667000000018 21.666667000000018 C16.666667000000018 23.333333499999981 16.666667000000018 26.666666500000019 16.666667000000018 28.333332999999982 C17.916667000000018 29.583332999999982 20.416667000000018 32.083332999999982 21.666667000000018 33.333332999999982 C23.333333499999981 33.333332999999982 26.666666500000019 33.333332999999982 28.333332999999982 33.333332999999982 C29.583332999999982 32.083332999999982 32.083332999999982 29.583332999999982 33.333332999999982 28.333332999999982 C33.333332999999982 26.666666500000019 33.333332999999982 23.333333499999981 33.333332999999982 21.666667000000018 zM16.666667000000000 6.666667000000000 C15.000000249999971 5.000000250000028 11.666666749999990 1.666666749999990 10.000000000000000 0.000000000000000 C9.166666749999990 0.000000000000000 7.500000250000028 0.000000000000000 6.666667000000018 0.000000000000000 C5.000000250000028 1.666666749999990 1.666666749999990 5.000000249999971 0.000000000000000 6.666667000000018 C0.000000000000000 7.500000250000028 0.000000000000000 9.166666749999990 0.000000000000000 10.000000000000000 C1.666666749999990 11.666666749999990 5.000000249999971 15.000000249999971 6.666667000000018 16.666667000000018 C7.500000250000028 16.666667000000018 9.166666749999990 16.666667000000018 10.000000000000000 16.666667000000018 C11.666666749999990 15.000000249999971 15.000000249999971 11.666666749999990 16.666667000000018 10.000000000000000 C16.666667000000018 9.166666749999990 16.666667000000018 7.500000250000028 16.666667000000018 6.666667000000018 z" />
<glyph unicode="0" horiz-adv-x="100" d="M83.333332999999996 8.333333000000000 C81.249999750000029 8.333332999999982 77.083333250000010 8.333332999999982 75.000000000000000 8.333332999999982 C75.000000000000000 6.249999749999972 75.000000000000000 2.083333250000010 75.000000000000000 0.000000000000000 C58.333333250000010 0.000000000000000 24.999999750000029 0.000000000000000 8.333332999999982 0.000000000000000 C8.333332999999982 2.083333250000010 8.333332999999982 6.249999749999972 8.333332999999982 8.333332999999982 C6.249999749999972 8.333332999999982 2.083333250000010 8.333332999999982 0.000000000000000 8.333332999999982 C0.000000000000000 24.999999750000029 0.000000000000000 58.333333250000010 0.000000000000000 75.000000000000000 C2.083333250000010 75.000000000000000 6.249999749999972 75.000000000000000 8.333332999999982 75.000000000000000 C8.333332999999982 77.083333250000010 8.333332999999982 81.249999750000001 8.333332999999982 83.333332999999982 C24.999999750000029 83.333332999999982 58.333333250000010 83.333332999999982 75.000000000000000 83.333332999999982 C75.000000000000000 81.249999750000001 75.000000000000000 77.083333250000010 75.000000000000000 75.000000000000000 C77.083333250000010 75.000000000000000 81.249999750000029 75.000000000000000 83.333333000000039 75.000000000000000 C83.333333000000039 58.333333250000010 83.333333000000039 24.999999750000029 83.333333000000039 8.333332999999982 zM50.000000000000000 16.666667000000000 C50.000000000000000 28.501828797805672 50.000000000000000 52.172152393416980 50.000000000000000 64.007314191222633 C45.833333250000010 64.007314191222633 37.499999750000029 64.007314191222633 33.333332999999982 64.007314191222633 C33.333332999999982 52.172152393416980 33.333332999999982 28.501828797805672 33.333332999999982 16.666667000000018 C37.499999750000029 16.666667000000018 45.833333250000010 16.666667000000018 50.000000000000000 16.666667000000018 z" />
<glyph unicode="1" horiz-adv-x="50" d="M33.333333000000003 0.000000000000000 C24.999999750000029 0.000000000000000 8.333333250000010 0.000000000000000 0.000000000000000 0.000000000000000 C0.000000000000000 16.666666749999990 0.000000000000000 50.000000249999971 0.000000000000000 66.666667000000018 C-2.083333250000010 66.666667000000018 -6.249999749999972 66.666667000000018 -8.333332999999982 66.666667000000018 C-8.333332999999982 70.833333500000009 -8.333332999999982 79.166666499999991 -8.333332999999982 83.333332999999982 C0.000000249999971 83.333332999999982 16.666666749999990 83.333332999999982 25.000000000000000 83.333332999999982 C25.000000000000000 81.249999750000001 25.000000000000000 77.083333250000010 25.000000000000000 75.000000000000000 C27.083333250000010 75.000000000000000 31.249999750000029 75.000000000000000 33.333332999999982 75.000000000000000 C33.333332999999982 56.250000000000000 33.333332999999982 18.750000000000000 33.333332999999982 0.000000000000000 z" />
<glyph unicode="2" horiz-adv-x="100" d="M83.333332999999996 0.000000000000000 C62.499999750000029 0.000000000000000 20.833333250000010 0.000000000000000 0.000000000000000 0.000000000000000 C0.000000000000000 10.416666749999990 0.000000000000000 31.250000249999971 0.000000000000000 41.666667000000018 C2.083333250000010 41.666667000000018 6.249999749999972 41.666667000000018 8.333332999999982 41.666667000000018 C8.333332999999982 43.750000249999971 8.333332999999982 47.916666749999990 8.333332999999982 50.000000000000000 C18.749999750000029 50.000000000000000 39.583333250000010 50.000000000000000 50.000000000000000 50.000000000000000 C50.000000000000000 54.166666749999990 50.000000000000000 62.500000249999971 50.000000000000000 66.666667000000018 C37.500000000000000 66.666667000000018 12.500000000000000 66.666667000000018 0.000000000000000 66.666667000000018 C0.000000000000000 70.833333500000009 0.000000000000000 79.166666499999991 0.000000000000000 83.333332999999982 C18.750000000000000 83.333332999999982 56.250000000000000 83.333332999999982 75.000000000000000 83.333332999999982 C75.000000000000000 81.249999750000001 75.000000000000000 77.083333250000010 75.000000000000000 75.000000000000000 C77.083333250000010 75.000000000000000 81.249999750000029 75.000000000000000 83.333333000000039 75.000000000000000 C83.333333000000039 66.666666749999990 83.333333000000039 50.000000249999971 83.333333000000039 41.666667000000018 C81.249999750000029 41.666667000000018 77.083333250000010 41.666667000000018 75.000000000000000 41.666667000000018 C75.000000000000000 39.583333499999981 75.000000000000000 35.416666500000019 75.000000000000000 33.333332999999982 C64.583333250000010 33.333332999999982 43.749999750000029 33.333332999999982 33.333332999999982 33.333332999999982 C33.333332999999982 29.166666500000019 33.333332999999982 20.833333499999981 33.333332999999982 16.666667000000018 C45.833333000000039 16.666667000000018 70.833333000000039 16.666667000000018 83.333333000000039 16.666667000000018 C83.333333000000039 12.500000249999971 83.333333000000039 4.166666749999990 83.333333000000039 0.000000000000000 z" />
<glyph unicode="3" horiz-adv-x="100" d="M83.333332999999996 8.333333000000000 C81.249999750000029 8.333332999999982 77.083333250000010 8.333332999999982 75.000000000000000 8.333332999999982 C75.000000000000000 6.249999749999972 75.000000000000000 2.083333250000010 75.000000000000000 0.000000000000000 C56.250000000000000 0.000000000000000 18.750000000000000 0.000000000000000 0.000000000000000 0.000000000000000 C0.000000000000000 4.166666749999990 0.000000000000000 12.500000249999971 0.000000000000000 16.666667000000018 C12.500000000000000 16.666667000000018 37.500000000000000 16.666667000000018 50.000000000000000 16.666667000000018 C50.000000000000000 20.833333499999981 50.000000000000000 29.166666500000019 50.000000000000000 33.333332999999982 C43.750000000000000 33.333332999999982 31.250000000000000 33.333332999999982 25.000000000000000 33.333332999999982 C25.000000000000000 37.499999750000029 25.000000000000000 45.833333250000010 25.000000000000000 50.000000000000000 C31.250000000000000 50.000000000000000 43.750000000000000 50.000000000000000 50.000000000000000 50.000000000000000 C50.000000000000000 54.166666749999990 50.000000000000000 62.500000249999971 50.000000000000000 66.666667000000018 C37.500000000000000 66.666667000000018 12.500000000000000 66.666667000000018 0.000000000000000 66.666667000000018 C0.000000000000000 70.833333500000009 0.000000000000000 79.166666499999991 0.000000000000000 83.333332999999982 C18.750000000000000 83.333332999999982 56.250000000000000 83.333332999999982 75.000000000000000 83.333332999999982 C75.000000000000000 81.249999750000001 75.000000000000000 77.083333250000010 75.000000000000000 75.000000000000000 C77.083333250000010 75.000000000000000 81.249999750000029 75.000000000000000 83.333333000000039 75.000000000000000 C83.333333000000039 68.750000000000000 83.333333000000039 56.250000000000000 83.333333000000039 50.000000000000000 C81.249999750000029 50.000000000000000 77.083333250000010 50.000000000000000 75.000000000000000 50.000000000000000 C75.000000000000000 45.833333250000010 75.000000000000000 37.499999750000029 75.000000000000000 33.333332999999982 C77.083333250000010 33.333332999999982 81.249999750000029 33.333332999999982 83.333333000000039 33.333332999999982 C83.333333000000039 27.083332999999982 83.333333000000039 14.583332999999982 83.333333000000039 8.333332999999982 z" />
<glyph unicode="4" horiz-adv-x="100" d="M83.333332999999996 0.000000000000000 C74.999999750000029 0.000000000000000 58.333333250000010 0.000000000000000 50.000000000000000 0.000000000000000 C50.000000000000000 8.333333250000010 50.000000000000000 24.999999750000029 50.000000000000000 33.333332999999982 C39.583333250000010 33.333332999999982 18.749999750000029 33.333332999999982 8.333332999999982 33.333332999999982 C8.333332999999982 35.416666500000019 8.333332999999982 39.583333499999981 8.333332999999982 41.666667000000018 C6.249999749999972 41.666667000000018 2.083333250000010 41.666667000000018 0.000000000000000 41.666667000000018 C0.000000000000000 52.083333499999981 0.000000000000000 72.916666499999991 0.000000000000000 83.333332999999982 C8.333333250000010 83.333332999999982 24.999999750000029 83.333332999999982 33.333332999999982 83.333332999999982 C33.333332999999982 74.999999750000001 33.333332999999982 58.333333250000010 33.333332999999982 50.000000000000000 C37.499999750000029 50.000000000000000 45.833333250000010 50.000000000000000 50.000000000000000 50.000000000000000 C50.000000000000000 58.333333250000010 50.000000000000000 74.999999750000001 50.000000000000000 83.333332999999982 C58.333333250000010 83.333332999999982 74.999999750000029 83.333332999999982 83.333333000000039 83.333332999999982 C83.333333000000039 62.499999750000029 83.333333000000039 20.833333250000010 83.333333000000039 0.000000000000000 z" />
<glyph unicode="5" horiz-adv-x="100" d="M83.333332999999996 8.333333000000000 C81.249999750000029 8.333332999999982 77.083333250000010 8.333332999999982 75.000000000000000 8.333332999999982 C75.000000000000000 6.249999749999972 75.000000000000000 2.083333250000010 75.000000000000000 0.000000000000000 C56.250000000000000 0.000000000000000 18.750000000000000 0.000000000000000 0.000000000000000 0.000000000000000 C0.000000000000000 4.166666749999990 0.000000000000000 12.500000249999971 0.000000000000000 16.666667000000018 C12.500000000000000 16.666667000000018 37.500000000000000 16.666667000000018 50.000000000000000 16.666667000000018 C50.000000000000000 20.833333499999981 50.000000000000000 29.166666500000019 50.000000000000000 33.333332999999982 C39.583333250000010 33.333332999999982 18.749999750000029 33.333332999999982 8.333332999999982 33.333332999999982 C8.333332999999982 35.416666500000019 8.333332999999982 39.583333499999981 8.333332999999982 41.666667000000018 C6.249999749999972 41.666667000000018 2.083333250000010 41.666667000000018 0.000000000000000 41.666667000000018 C0.000000000000000 52.083333499999981 0.000000000000000 72.916666499999991 0.000000000000000 83.333332999999982 C20.833333250000010 83.333332999999982 62.499999750000029 83.333332999999982 83.333333000000039 83.333332999999982 C83.333333000000039 79.166666499999991 83.333333000000039 70.833333500000009 83.333333000000039 66.666667000000018 C70.833333000000039 66.666667000000018 45.833333000000039 66.666667000000018 33.333332999999982 66.666667000000018 C33.333332999999982 62.500000249999971 33.333332999999982 54.166666749999990 33.333332999999982 50.000000000000000 C43.749999750000029 50.000000000000000 64.583333250000010 50.000000000000000 75.000000000000000 50.000000000000000 C75.000000000000000 47.916666749999990 75.000000000000000 43.750000249999971 75.000000000000000 41.666667000000018 C77.083333250000010 41.666667000000018 81.249999750000029 41.666667000000018 83.333333000000039 41.666667000000018 C83.333333000000039 33.333333499999981 83.333333000000039 16.666666500000019 83.333333000000039 8.333332999999982 z" />
<glyph unicode="6" horiz-adv-x="100" d="M83.333332999999996 8.333333000000000 C81.249999750000029 8.333332999999982 77.083333250000010 8.333332999999982 75.000000000000000 8.333332999999982 C75.000000000000000 6.249999749999972 75.000000000000000 2.083333250000010 75.000000000000000 0.000000000000000 C58.333333250000010 0.000000000000000 24.999999750000029 0.000000000000000 8.333332999999982 0.000000000000000 C8.333332999999982 2.083333250000010 8.333332999999982 6.249999749999972 8.333332999999982 8.333332999999982 C6.249999749999972 8.333332999999982 2.083333250000010 8.333332999999982 0.000000000000000 8.333332999999982 C0.000000000000000 24.999999750000029 0.000000000000000 58.333333250000010 0.000000000000000 75.000000000000000 C2.083333250000010 75.000000000000000 6.249999749999972 75.000000000000000 8.333332999999982 75.000000000000000 C8.333332999999982 77.083333250000010 8.333332999999982 81.249999750000001 8.333332999999982 83.333332999999982 C27.083332999999982 83.333332999999982 64.583333000000039 83.333332999999982 83.333333000000039 83.333332999999982 C83.333333000000039 79.166666499999991 83.333333000000039 70.833333500000009 83.333333000000039 66.666667000000018 C70.833333000000039 66.666667000000018 45.833333000000039 66.666667000000018 33.333332999999982 66.666667000000018 C33.333332999999982 62.500000249999971 33.333332999999982 54.166666749999990 33.333332999999982 50.000000000000000 C43.749999750000029 50.000000000000000 64.583333250000010 50.000000000000000 75.000000000000000 50.000000000000000 C75.000000000000000 47.916666749999990 75.000000000000000 43.750000249999971 75.000000000000000 41.666667000000018 C77.083333250000010 41.666667000000018 81.249999750000029 41.666667000000018 83.333333000000039 41.666667000000018 C83.333333000000039 33.333333499999981 83.333333000000039 16.666666500000019 83.333333000000039 8.333332999999982 zM50.000000000000000 16.666667000000000 C50.000000000000000 20.833333499999981 50.000000000000000 29.166666500000019 50.000000000000000 33.333332999999982 C45.833333250000010 33.333332999999982 37.499999750000029 33.333332999999982 33.333332999999982 33.333332999999982 C33.333332999999982 29.166666500000019 33.333332999999982 20.833333499999981 33.333332999999982 16.666667000000018 C37.499999750000029 16.666667000000018 45.833333250000010 16.666667000000018 50.000000000000000 16.666667000000018 z" />
<glyph unicode="7" horiz-adv-x="100" d="M83.333332999999996 0.000000000000000 C74.999999750000029 0.000000000000000 58.333333250000010 0.000000000000000 50.000000000000000 0.000000000000000 C50.000000000000000 16.666666749999990 50.000000000000000 50.000000249999971 50.000000000000000 66.666667000000018 C37.500000000000000 66.666667000000018 12.500000000000000 66.666667000000018 0.000000000000000 66.666667000000018 C0.000000000000000 70.833333500000009 0.000000000000000 79.166666499999991 0.000000000000000 83.333332999999982 C18.750000000000000 83.333332999999982 56.250000000000000 83.333332999999982 75.000000000000000 83.333332999999982 C75.000000000000000 81.249999750000001 75.000000000000000 77.083333250000010 75.000000000000000 75.000000000000000 C77.083333250000010 75.000000000000000 81.249999750000029 75.000000000000000 83.333333000000039 75.000000000000000 C83.333333000000039 56.250000000000000 83.333333000000039 18.750000000000000 83.333333000000039 0.000000000000000 z" />
<glyph unicode="8" horiz-adv-x="100" d="M83.333332999999996 8.333333000000000 C81.249999750000029 8.333332999999982 77.083333250000010 8.333332999999982 75.000000000000000 8.333332999999982 C75.000000000000000 6.249999749999972 75.000000000000000 2.083333250000010 75.000000000000000 0.000000000000000 C58.333333250000010 0.000000000000000 24.999999750000029 0.000000000000000 8.333332999999982 0.000000000000000 C8.333332999999982 2.083333250000010 8.333332999999982 6.249999749999972 8.333332999999982 8.333332999999982 C6.249999749999972 8.333332999999982 2.083333250000010 8.333332999999982 0.000000000000000 8.333332999999982 C0.000000000000000 14.583332999999982 0.000000000000000 27.083332999999982 0.000000000000000 33.333332999999982 C2.083333250000010 33.333332999999982 6.249999749999972 33.333332999999982 8.333332999999982 33.333332999999982 C8.333332999999982 37.499999750000029 8.333332999999982 45.833333250000010 8.333332999999982 50.000000000000000 C6.249999749999972 50.000000000000000 2.083333250000010 50.000000000000000 0.000000000000000 50.000000000000000 C0.000000000000000 56.250000000000000 0.000000000000000 68.750000000000000 0.000000000000000 75.000000000000000 C2.083333250000010 75.000000000000000 6.249999749999972 75.000000000000000 8.333332999999982 75.000000000000000 C8.333332999999982 77.083333250000010 8.333332999999982 81.249999750000001 8.333332999999982 83.333332999999982 C24.999999750000029 83.333332999999982 58.333333250000010 83.333332999999982 75.000000000000000 83.333332999999982 C75.000000000000000 81.249999750000001 75.000000000000000 77.083333250000010 75.000000000000000 75.000000000000000 C77.083333250000010 75.000000000000000 81.249999750000029 75.000000000000000 83.333333000000039 75.000000000000000 C83.333333000000039 68.750000000000000 83.333333000000039 56.250000000000000 83.333333000000039 50.000000000000000 C81.249999750000029 50.000000000000000 77.083333250000010 50.000000000000000 75.000000000000000 50.000000000000000 C75.000000000000000 45.833333250000010 75.000000000000000 37.499999750000029 75.000000000000000 33.333332999999982 C77.083333250000010 33.333332999999982 81.249999750000029 33.333332999999982 83.333333000000039 33.333332999999982 C83.333333000000039 27.083332999999982 83.333333000000039 14.583332999999982 83.333333000000039 8.333332999999982 zM50.000000000000000 50.000000000000000 C50.000000000000000 54.166666749999990 50.000000000000000 62.500000249999971 50.000000000000000 66.666667000000018 C45.833333250000010 66.666667000000018 37.499999750000029 66.666667000000018 33.333332999999982 66.666667000000018 C33.333332999999982 62.500000249999971 33.333332999999982 54.166666749999990 33.333332999999982 50.000000000000000 C37.499999750000029 50.000000000000000 45.833333250000010 50.000000000000000 50.000000000000000 50.000000000000000 zM50.000000000000000 16.666667000000000 C50.000000000000000 20.833333499999981 50.000000000000000 29.166666500000019 50.000000000000000 33.333332999999982 C45.833333250000010 33.333332999999982 37.499999750000029 33.333332999999982 33.333332999999982 33.333332999999982 C33.333332999999982 29.166666500000019 33.333332999999982 20.833333499999981 33.333332999999982 16.666667000000018 C37.499999750000029 16.666667000000018 45.833333250000010 16.666667000000018 50.000000000000000 16.666667000000018 z" />
<glyph unicode="9" horiz-adv-x="100" d="M83.333332999999996 8.333333000000000 C81.249999750000029 8.333332999999982 77.083333250000010 8.333332999999982 75.000000000000000 8.333332999999982 C75.000000000000000 6.249999749999972 75.000000000000000 2.083333250000010 75.000000000000000 0.000000000000000 C56.250000000000000 0.000000000000000 18.750000000000000 0.000000000000000 0.000000000000000 0.000000000000000 C0.000000000000000 4.166666749999990 0.000000000000000 12.500000249999971 0.000000000000000 16.666667000000018 C12.500000000000000 16.666667000000018 37.500000000000000 16.666667000000018 50.000000000000000 16.666667000000018 C50.000000000000000 20.833333499999981 50.000000000000000 29.166666500000019 50.000000000000000 33.333332999999982 C39.583333250000010 33.333332999999982 18.749999750000029 33.333332999999982 8.333332999999982 33.333332999999982 C8.333332999999982 35.416666500000019 8.333332999999982 39.583333499999981 8.333332999999982 41.666667000000018 C6.249999749999972 41.666667000000018 2.083333250000010 41.666667000000018 0.000000000000000 41.666667000000018 C0.000000000000000 50.000000249999971 0.000000000000000 66.666666749999990 0.000000000000000 75.000000000000000 C2.083333250000010 75.000000000000000 6.249999749999972 75.000000000000000 8.333332999999982 75.000000000000000 C8.333332999999982 77.083333250000010 8.333332999999982 81.249999750000001 8.333332999999982 83.333332999999982 C24.999999750000029 83.333332999999982 58.333333250000010 83.333332999999982 75.000000000000000 83.333332999999982 C75.000000000000000 81.249999750000001 75.000000000000000 77.083333250000010 75.000000000000000 75.000000000000000 C77.083333250000010 75.000000000000000 81.249999750000029 75.000000000000000 83.333333000000039 75.000000000000000 C83.333333000000039 58.333333250000010 83.333333000000039 24.999999750000029 83.333333000000039 8.333332999999982 zM50.000000000000000 50.000000000000000 C50.000000000000000 54.166666749999990 50.000000000000000 62.500000249999971 50.000000000000000 66.666667000000018 C45.833333250000010 66.666667000000018 37.499999750000029 66.666667000000018 33.333332999999982 66.666667000000018 C33.333332999999982 62.500000249999971 33.333332999999982 54.166666749999990 33.333332999999982 50.000000000000000 C37.499999750000029 50.000000000000000 45.833333250000010 50.000000000000000 50.000000000000000 50.000000000000000 z" />
<glyph unicode="A" horiz-adv-x="100" d="M83.333332999999996 0.000000000000000 C74.999999750000029 0.000000000000000 58.333333250000010 0.000000000000000 50.000000000000000 0.000000000000000 C50.000000000000000 8.333333250000010 50.000000000000000 24.999999750000029 50.000000000000000 33.333332999999982 C45.833333250000010 33.333332999999982 37.499999750000029 33.333332999999982 33.333332999999982 33.333332999999982 C33.333332999999982 24.999999750000029 33.333332999999982 8.333333250000010 33.333332999999982 0.000000000000000 C24.999999750000029 0.000000000000000 8.333333250000010 0.000000000000000 0.000000000000000 0.000000000000000 C0.000000000000000 18.750000000000000 0.000000000000000 56.250000000000000 0.000000000000000 75.000000000000000 C2.083333250000010 75.000000000000000 6.249999749999972 75.000000000000000 8.333332999999982 75.000000000000000 C8.333332999999982 77.083333250000010 8.333332999999982 81.249999750000001 8.333332999999982 83.333332999999982 C24.999999750000029 83.333332999999982 58.333333250000010 83.333332999999982 75.000000000000000 83.333332999999982 C75.000000000000000 81.249999750000001 75.000000000000000 77.083333250000010 75.000000000000000 75.000000000000000 C77.083333250000010 75.000000000000000 81.249999750000029 75.000000000000000 83.333333000000039 75.000000000000000 C83.333333000000039 56.250000000000000 83.333333000000039 18.750000000000000 83.333333000000039 0.000000000000000 zM50.000000000000000 50.000000000000000 C50.000000000000000 54.166666749999990 50.000000000000000 62.500000249999971 50.000000000000000 66.666667000000018 C45.833333250000010 66.666667000000018 37.499999750000029 66.666667000000018 33.333332999999982 66.666667000000018 C33.333332999999982 62.500000249999971 33.333332999999982 54.166666749999990 33.333332999999982 50.000000000000000 C37.499999750000029 50.000000000000000 45.833333250000010 50.000000000000000 50.000000000000000 50.000000000000000 z" />
<glyph unicode="B" horiz-adv-x="100" d="M83.333332999999996 8.333333000000000 C81.249999750000029 8.333332999999982 77.083333250000010 8.333332999999982 75.000000000000000 8.333332999999982 C75.000000000000000 6.249999749999972 75.000000000000000 2.083333250000010 75.000000000000000 0.000000000000000 C56.250000000000000 0.000000000000000 18.750000000000000 0.000000000000000 0.000000000000000 0.000000000000000 C0.000000000000000 20.833333250000010 0.000000000000000 62.499999750000029 0.000000000000000 83.333332999999982 C18.750000000000000 83.333332999999982 56.250000000000000 83.333332999999982 75.000000000000000 83.333332999999982 C75.000000000000000 81.249999750000001 75.000000000000000 77.083333250000010 75.000000000000000 75.000000000000000 C77.083333250000010 75.000000000000000 81.249999750000029 75.000000000000000 83.333333000000039 75.000000000000000 C83.333333000000039 68.750000000000000 83.333333000000039 56.250000000000000 83.333333000000039 50.000000000000000 C81.249999750000029 50.000000000000000 77.083333250000010 50.000000000000000 75.000000000000000 50.000000000000000 C75.000000000000000 45.833333250000010 75.000000000000000 37.499999750000029 75.000000000000000 33.333332999999982 C77.083333250000010 33.333332999999982 81.249999750000029 33.333332999999982 83.333333000000039 33.333332999999982 C83.333333000000039 27.083332999999982 83.333333000000039 14.583332999999982 83.333333000000039 8.333332999999982 zM50.000000000000000 50.000000000000000 C50.000000000000000 54.166666749999990 50.000000000000000 62.500000249999971 50.000000000000000 66.666667000000018 C45.833333250000010 66.666667000000018 37.499999750000029 66.666667000000018 33.333332999999982 66.666667000000018 C33.333332999999982 62.500000249999971 33.333332999999982 54.166666749999990 33.333332999999982 50.000000000000000 C37.499999750000029 50.000000000000000 45.833333250000010 50.000000000000000 50.000000000000000 50.000000000000000 zM50.000000000000000 16.666667000000000 C50.000000000000000 20.833333499999981 50.000000000000000 29.166666500000019 50.000000000000000 33.333332999999982 C45.833333250000010 33.333332999999982 37.499999750000029 33.333332999999982 33.333332999999982 33.333332999999982 C33.333332999999982 29.166666500000019 33.333332999999982 20.833333499999981 33.333332999999982 16.666667000000018 C37.499999750000029 16.666667000000018 45.833333250000010 16.666667000000018 50.000000000000000 16.666667000000018 z" />
<glyph unicode="C" horiz-adv-x="100" d="M83.333332999999996 0.000000000000000 C64.583333000000039 0.000000000000000 27.083332999999982 0.000000000000000 8.333332999999982 0.000000000000000 C8.333332999999982 2.083333250000010 8.333332999999982 6.249999749999972 8.333332999999982 8.333332999999982 C6.249999749999972 8.333332999999982 2.083333250000010 8.333332999999982 0.000000000000000 8.333332999999982 C0.000000000000000 24.999999750000029 0.000000000000000 58.333333250000010 0.000000000000000 75.000000000000000 C2.083333250000010 75.000000000000000 6.249999749999972 75.000000000000000 8.333332999999982 75.000000000000000 C8.333332999999982 77.083333250000010 8.333332999999982 81.249999750000001 8.333332999999982 83.333332999999982 C27.083332999999982 83.333332999999982 64.583333000000039 83.333332999999982 83.333333000000039 83.333332999999982 C83.333333000000039 79.166666499999991 83.333333000000039 70.833333500000009 83.333333000000039 66.666667000000018 C70.833333000000039 66.666667000000018 45.833333000000039 66.666667000000018 33.333332999999982 66.666667000000018 C33.333332999999982 54.166667000000018 33.333332999999982 29.166667000000018 33.333332999999982 16.666667000000018 C45.833333000000039 16.666667000000018 70.833333000000039 16.666667000000018 83.333333000000039 16.666667000000018 C83.333333000000039 12.500000249999971 83.333333000000039 4.166666749999990 83.333333000000039 0.000000000000000 z" />
<glyph unicode="D" horiz-adv-x="100" d="M83.333332999999996 8.333333000000000 C81.249999750000029 8.333332999999982 77.083333250000010 8.333332999999982 75.000000000000000 8.333332999999982 C75.000000000000000 6.249999749999972 75.000000000000000 2.083333250000010 75.000000000000000 0.000000000000000 C56.250000000000000 0.000000000000000 18.750000000000000 0.000000000000000 0.000000000000000 0.000000000000000 C0.000000000000000 20.833333250000010 0.000000000000000 62.499999750000029 0.000000000000000 83.333332999999982 C18.750000000000000 83.333332999999982 56.250000000000000 83.333332999999982 75.000000000000000 83.333332999999982 C75.000000000000000 81.249999750000001 75.000000000000000 77.083333250000010 75.000000000000000 75.000000000000000 C77.083333250000010 75.000000000000000 81.249999750000029 75.000000000000000 83.333333000000039 75.000000000000000 C83.333333000000039 58.333333250000010 83.333333000000039 24.999999750000029 83.333333000000039 8.333332999999982 zM50.000000000000000 16.666667000000000 C50.000000000000000 29.166667000000018 50.000000000000000 54.166667000000018 50.000000000000000 66.666667000000018 C45.833333250000010 66.666667000000018 37.499999750000029 66.666667000000018 33.333332999999982 66.666667000000018 C33.333332999999982 54.166667000000018 33.333332999999982 29.166667000000018 33.333332999999982 16.666667000000018 C37.499999750000029 16.666667000000018 45.833333250000010 16.666667000000018 50.000000000000000 16.666667000000018 z" />
<glyph unicode="E" horiz-adv-x="100" d="M83.333332999999996 0.000000000000000 C64.583333000000039 0.000000000000000 27.083332999999982 0.000000000000000 8.333332999999982 0.000000000000000 C8.333332999999982 2.083333250000010 8.333332999999982 6.249999749999972 8.333332999999982 8.333332999999982 C6.249999749999972 8.333332999999982 2.083333250000010 8.333332999999982 0.000000000000000 8.333332999999982 C0.000000000000000 24.999999750000029 0.000000000000000 58.333333250000010 0.000000000000000 75.000000000000000 C2.083333250000010 75.000000000000000 6.249999749999972 75.000000000000000 8.333332999999982 75.000000000000000 C8.333332999999982 77.083333250000010 8.333332999999982 81.249999750000001 8.333332999999982 83.333332999999982 C27.083332999999982 83.333332999999982 64.583333000000039 83.333332999999982 83.333333000000039 83.333332999999982 C83.333333000000039 79.166666499999991 83.333333000000039 70.833333500000009 83.333333000000039 66.666667000000018 C70.833333000000039 66.666667000000018 45.833333000000039 66.666667000000018 33.333332999999982 66.666667000000018 C33.333332999999982 62.500000249999971 33.333332999999982 54.166666749999990 33.333332999999982 50.000000000000000 C39.583332999999982 50.000000000000000 52.083333000000039 50.000000000000000 58.333333000000039 50.000000000000000 C58.333333000000039 45.833333250000010 58.333333000000039 37.499999750000029 58.333333000000039 33.333332999999982 C52.083333000000039 33.333332999999982 39.583332999999982 33.333332999999982 33.333332999999982 33.333332999999982 C33.333332999999982 29.166666500000019 33.333332999999982 20.833333499999981 33.333332999999982 16.666667000000018 C45.833333000000039 16.666667000000018 70.833333000000039 16.666667000000018 83.333333000000039 16.666667000000018 C83.333333000000039 12.500000249999971 83.333333000000039 4.166666749999990 83.333333000000039 0.000000000000000 z" />
<glyph unicode="F" horiz-adv-x="100" d="M83.333332999999996 66.666667000000004 C70.833333000000039 66.666667000000018 45.833333000000039 66.666667000000018 33.333332999999982 66.666667000000018 C33.333332999999982 62.500000249999971 33.333332999999982 54.166666749999990 33.333332999999982 50.000000000000000 C39.583332999999982 50.000000000000000 52.083333000000039 50.000000000000000 58.333333000000039 50.000000000000000 C58.333333000000039 45.833333250000010 58.333333000000039 37.499999750000029 58.333333000000039 33.333332999999982 C52.083333000000039 33.333332999999982 39.583332999999982 33.333332999999982 33.333332999999982 33.333332999999982 C33.333332999999982 24.999999750000029 33.333332999999982 8.333333250000010 33.333332999999982 0.000000000000000 C24.999999750000029 0.000000000000000 8.333333250000010 0.000000000000000 0.000000000000000 0.000000000000000 C0.000000000000000 18.750000000000000 0.000000000000000 56.250000000000000 0.000000000000000 75.000000000000000 C2.083333250000010 75.000000000000000 6.249999749999972 75.000000000000000 8.333332999999982 75.000000000000000 C8.333332999999982 77.083333250000010 8.333332999999982 81.249999750000001 8.333332999999982 83.333332999999982 C27.083332999999982 83.333332999999982 64.583333000000039 83.333332999999982 83.333333000000039 83.333332999999982 C83.333333000000039 79.166666499999991 83.333333000000039 70.833333500000009 83.333333000000039 66.666667000000018 z" />
<glyph unicode="G" horiz-adv-x="100" d="M83.333332999999996 0.000000000000000 C64.583333000000039 0.000000000000000 27.083332999999982 0.000000000000000 8.333332999999982 0.000000000000000 C8.333332999999982 2.083333250000010 8.333332999999982 6.249999749999972 8.333332999999982 8.333332999999982 C6.249999749999972 8.333332999999982 2.083333250000010 8.333332999999982 0.000000000000000 8.333332999999982 C0.000000000000000 24.999999750000029 0.000000000000000 58.333333250000010 0.000000000000000 75.000000000000000 C2.083333250000010 75.000000000000000 6.249999749999972 75.000000000000000 8.333332999999982 75.000000000000000 C8.333332999999982 77.083333250000010 8.333332999999982 81.249999750000001 8.333332999999982 83.333332999999982 C27.083332999999982 83.333332999999982 64.583333000000039 83.333332999999982 83.333333000000039 83.333332999999982 C83.333333000000039 79.166666499999991 83.333333000000039 70.833333500000009 83.333333000000039 66.666667000000018 C70.833333000000039 66.666667000000018 45.833333000000039 66.666667000000018 33.333332999999982 66.666667000000018 C33.333332999999982 54.166667000000018 33.333332999999982 29.166667000000018 33.333332999999982 16.666667000000018 C37.499999750000029 16.666667000000018 45.833333250000010 16.666667000000018 50.000000000000000 16.666667000000018 C50.000000000000000 20.833333499999981 50.000000000000000 29.166666500000019 50.000000000000000 33.333332999999982 C47.916666749999990 33.333332999999982 43.750000249999971 33.333332999999982 41.666667000000018 33.333332999999982 C41.666667000000018 37.499999750000029 41.666667000000018 45.833333250000010 41.666667000000018 50.000000000000000 C52.083333499999981 50.000000000000000 72.916666500000019 50.000000000000000 83.333333000000039 50.000000000000000 C83.333333000000039 37.500000000000000 83.333333000000039 12.500000000000000 83.333333000000039 0.000000000000000 z" />
<glyph unicode="H" horiz-adv-x="100" d="M83.333332999999996 0.000000000000000 C74.999999750000029 0.000000000000000 58.333333250000010 0.000000000000000 50.000000000000000 0.000000000000000 C50.000000000000000 8.333333250000010 50.000000000000000 24.999999750000029 50.000000000000000 33.333332999999982 C45.833333250000010 33.333332999999982 37.499999750000029 33.333332999999982 33.333332999999982 33.333332999999982 C33.333332999999982 24.999999750000029 33.333332999999982 8.333333250000010 33.333332999999982 0.000000000000000 C24.999999750000029 0.000000000000000 8.333333250000010 0.000000000000000 0.000000000000000 0.000000000000000 C0.000000000000000 20.833333250000010 0.000000000000000 62.499999750000029 0.000000000000000 83.333332999999982 C8.333333250000010 83.333332999999982 24.999999750000029 83.333332999999982 33.333332999999982 83.333332999999982 C33.333332999999982 74.999999750000001 33.333332999999982 58.333333250000010 33.333332999999982 50.000000000000000 C37.499999750000029 50.000000000000000 45.833333250000010 50.000000000000000 50.000000000000000 50.000000000000000 C50.000000000000000 58.333333250000010 50.000000000000000 74.999999750000001 50.000000000000000 83.333332999999982 C58.333333250000010 83.333332999999982 74.999999750000029 83.333332999999982 83.333333000000039 83.333332999999982 C83.333333000000039 62.499999750000029 83.333333000000039 20.833333250000010 83.333333000000039 0.000000000000000 z" />
<glyph unicode="I" horiz-adv-x="50" d="M33.333333000000003 0.000000000000000 C24.999999750000029 0.000000000000000 8.333333250000010 0.000000000000000 0.000000000000000 0.000000000000000 C0.000000000000000 20.833333250000010 0.000000000000000 62.499999750000029 0.000000000000000 83.333332999999982 C8.333333250000010 83.333332999999982 24.999999750000029 83.333332999999982 33.333332999999982 83.333332999999982 C33.333332999999982 62.499999750000029 33.333332999999982 20.833333250000010 33.333332999999982 0.000000000000000 z" />
<glyph unicode="J" horiz-adv-x="100" d="M83.333332999999996 8.333333000000000 C81.249999750000029 8.333332999999982 77.083333250000010 8.333332999999982 75.000000000000000 8.333332999999982 C75.000000000000000 6.249999749999972 75.000000000000000 2.083333250000010 75.000000000000000 0.000000000000000 C56.250000000000000 0.000000000000000 18.750000000000000 0.000000000000000 0.000000000000000 0.000000000000000 C0.000000000000000 4.166666749999990 0.000000000000000 12.500000249999971 0.000000000000000 16.666667000000018 C12.500000000000000 16.666667000000018 37.500000000000000 16.666667000000018 50.000000000000000 16.666667000000018 C50.000000000000000 33.333333499999981 50.000000000000000 66.666666499999991 50.000000000000000 83.333332999999982 C58.333333250000010 83.333332999999982 74.999999750000029 83.333332999999982 83.333333000000039 83.333332999999982 C83.333333000000039 64.583332999999982 83.333333000000039 27.083332999999982 83.333333000000039 8.333332999999982 z" />
<glyph unicode="K" horiz-adv-x="100" d="M83.333332999999996 0.000000000000000 C74.999999750000029 0.000000000000000 58.333333250000010 0.000000000000000 50.000000000000000 0.000000000000000 C50.000000000000000 8.333333250000010 50.000000000000000 24.999999750000029 50.000000000000000 33.333332999999982 C45.833333250000010 33.333332999999982 37.499999750000029 33.333332999999982 33.333332999999982 33.333332999999982 C33.333332999999982 24.999999750000029 33.333332999999982 8.333333250000010 33.333332999999982 0.000000000000000 C24.999999750000029 0.000000000000000 8.333333250000010 0.000000000000000 0.000000000000000 0.000000000000000 C0.000000000000000 20.833333250000010 0.000000000000000 62.499999750000029 0.000000000000000 83.333332999999982 C8.333333250000010 83.333332999999982 24.999999750000029 83.333332999999982 33.333332999999982 83.333332999999982 C33.333332999999982 74.999999750000001 33.333332999999982 58.333333250000010 33.333332999999982 50.000000000000000 C37.499999750000029 50.000000000000000 45.833333250000010 50.000000000000000 50.000000000000000 50.000000000000000 C50.000000000000000 58.333333250000010 50.000000000000000 74.999999750000001 50.000000000000000 83.333332999999982 C58.333333250000010 83.333332999999982 74.999999750000029 83.333332999999982 83.333333000000039 83.333332999999982 C83.333333000000039 74.999999750000001 83.333333000000039 58.333333250000010 83.333333000000039 50.000000000000000 C81.249999750000029 50.000000000000000 77.083333250000010 50.000000000000000 75.000000000000000 50.000000000000000 C75.000000000000000 45.833333250000010 75.000000000000000 37.499999750000029 75.000000000000000 33.333332999999982 C77.083333250000010 33.333332999999982 81.249999750000029 33.333332999999982 83.333333000000039 33.333332999999982 C83.333333000000039 24.999999750000029 83.333333000000039 8.333333250000010 83.333333000000039 0.000000000000000 z" />
<glyph unicode="L" horiz-adv-x="100" d="M83.333332999999996 0.000000000000000 C62.499999750000029 0.000000000000000 20.833333250000010 0.000000000000000 0.000000000000000 0.000000000000000 C0.000000000000000 20.833333250000010 0.000000000000000 62.499999750000029 0.000000000000000 83.333332999999982 C8.333333250000010 83.333332999999982 24.999999750000029 83.333332999999982 33.333332999999982 83.333332999999982 C33.333332999999982 66.666666499999991 33.333332999999982 33.333333499999981 33.333332999999982 16.666667000000018 C45.833333000000039 16.666667000000018 70.833333000000039 16.666667000000018 83.333333000000039 16.666667000000018 C83.333333000000039 12.500000249999971 83.333333000000039 4.166666749999990 83.333333000000039 0.000000000000000 z" />
<glyph unicode="M" horiz-adv-x="150" d="M133.333333000000010 0.000000000000000 C124.999999750000029 0.000000000000000 108.333333250000010 0.000000000000000 100.000000000000000 0.000000000000000 C100.000000000000000 16.666666749999990 100.000000000000000 50.000000249999971 100.000000000000000 66.666667000000018 C95.833333250000010 66.666667000000018 87.499999750000029 66.666667000000018 83.333333000000039 66.666667000000018 C83.333333000000039 50.000000249999971 83.333333000000039 16.666666749999990 83.333333000000039 0.000000000000000 C74.999999750000029 0.000000000000000 58.333333250000010 0.000000000000000 50.000000000000000 0.000000000000000 C50.000000000000000 16.666666749999990 50.000000000000000 50.000000249999971 50.000000000000000 66.666667000000018 C45.833333250000010 66.666667000000018 37.499999750000029 66.666667000000018 33.333332999999982 66.666667000000018 C33.333332999999982 50.000000249999971 33.333332999999982 16.666666749999990 33.333332999999982 0.000000000000000 C24.999999750000029 0.000000000000000 8.333333250000010 0.000000000000000 0.000000000000000 0.000000000000000 C0.000000000000000 20.833333250000010 0.000000000000000 62.499999750000029 0.000000000000000 83.333332999999982 C31.250000000000000 83.333332999999982 93.750000000000000 83.333332999999982 125.000000000000000 83.333332999999982 C125.000000000000000 81.249999750000001 125.000000000000000 77.083333250000010 125.000000000000000 75.000000000000000 C127.083333250000010 75.000000000000000 131.249999750000029 75.000000000000000 133.333333000000039 75.000000000000000 C133.333333000000039 56.250000000000000 133.333333000000039 18.750000000000000 133.333333000000039 0.000000000000000 z" />
<glyph unicode="N" horiz-adv-x="100" d="M83.333332999999996 0.000000000000000 C74.999999750000029 0.000000000000000 58.333333250000010 0.000000000000000 50.000000000000000 0.000000000000000 C50.000000000000000 16.666666749999990 50.000000000000000 50.000000249999971 50.000000000000000 66.666667000000018 C45.833333250000010 66.666667000000018 37.499999750000029 66.666667000000018 33.333332999999982 66.666667000000018 C33.333332999999982 50.000000249999971 33.333332999999982 16.666666749999990 33.333332999999982 0.000000000000000 C24.999999750000029 0.000000000000000 8.333333250000010 0.000000000000000 0.000000000000000 0.000000000000000 C0.000000000000000 20.833333250000010 0.000000000000000 62.499999750000029 0.000000000000000 83.333332999999982 C18.750000000000000 83.333332999999982 56.250000000000000 83.333332999999982 75.000000000000000 83.333332999999982 C75.000000000000000 81.249999750000001 75.000000000000000 77.083333250000010 75.000000000000000 75.000000000000000 C77.083333250000010 75.000000000000000 81.249999750000029 75.000000000000000 83.333333000000039 75.000000000000000 C83.333333000000039 56.250000000000000 83.333333000000039 18.750000000000000 83.333333000000039 0.000000000000000 z" />
<glyph unicode="O" horiz-adv-x="100" d="M83.333332999999996 8.333333000000000 C81.249999750000029 8.333332999999982 77.083333250000010 8.333332999999982 75.000000000000000 8.333332999999982 C75.000000000000000 6.249999749999972 75.000000000000000 2.083333250000010 75.000000000000000 0.000000000000000 C58.333333250000010 0.000000000000000 24.999999750000029 0.000000000000000 8.333332999999982 0.000000000000000 C8.333332999999982 2.083333250000010 8.333332999999982 6.249999749999972 8.333332999999982 8.333332999999982 C6.249999749999972 8.333332999999982 2.083333250000010 8.333332999999982 0.000000000000000 8.333332999999982 C0.000000000000000 24.999999750000029 0.000000000000000 58.333333250000010 0.000000000000000 75.000000000000000 C2.083333250000010 75.000000000000000 6.249999749999972 75.000000000000000 8.333332999999982 75.000000000000000 C8.333332999999982 77.083333250000010 8.333332999999982 81.249999750000001 8.333332999999982 83.333332999999982 C24.999999750000029 83.333332999999982 58.333333250000010 83.333332999999982 75.000000000000000 83.333332999999982 C75.000000000000000 81.249999750000001 75.000000000000000 77.083333250000010 75.000000000000000 75.000000000000000 C77.083333250000010 75.000000000000000 81.249999750000029 75.000000000000000 83.333333000000039 75.000000000000000 C83.333333000000039 58.333333250000010 83.333333000000039 24.999999750000029 83.333333000000039 8.333332999999982 zM50.000000000000000 16.666667000000000 C50.000000000000000 29.166667000000018 50.000000000000000 54.166667000000018 50.000000000000000 66.666667000000018 C45.833333250000010 66.666667000000018 37.499999750000029 66.666667000000018 33.333332999999982 66.666667000000018 C33.333332999999982 54.166667000000018 33.333332999999982 29.166667000000018 33.333332999999982 16.666667000000018 C37.499999750000029 16.666667000000018 45.833333250000010 16.666667000000018 50.000000000000000 16.666667000000018 z" />
<glyph unicode="P" horiz-adv-x="100" d="M83.333332999999996 41.666666999999997 C81.249999750000029 41.666667000000018 77.083333250000010 41.666667000000018 75.000000000000000 41.666667000000018 C75.000000000000000 39.583333499999981 75.000000000000000 35.416666500000019 75.000000000000000 33.333332999999982 C64.583333250000010 33.333332999999982 43.749999750000029 33.333332999999982 33.333332999999982 33.333332999999982 C33.333332999999982 24.999999750000029 33.333332999999982 8.333333250000010 33.333332999999982 0.000000000000000 C24.999999750000029 0.000000000000000 8.333333250000010 0.000000000000000 0.000000000000000 0.000000000000000 C0.000000000000000 20.833333250000010 0.000000000000000 62.499999750000029 0.000000000000000 83.333332999999982 C18.750000000000000 83.333332999999982 56.250000000000000 83.333332999999982 75.000000000000000 83.333332999999982 C75.000000000000000 81.249999750000001 75.000000000000000 77.083333250000010 75.000000000000000 75.000000000000000 C77.083333250000010 75.000000000000000 81.249999750000029 75.000000000000000 83.333333000000039 75.000000000000000 C83.333333000000039 66.666666749999990 83.333333000000039 50.000000249999971 83.333333000000039 41.666667000000018 zM50.000000000000000 50.000000000000000 C50.000000000000000 54.166666749999990 50.000000000000000 62.500000249999971 50.000000000000000 66.666667000000018 C45.833333250000010 66.666667000000018 37.499999750000029 66.666667000000018 33.333332999999982 66.666667000000018 C33.333332999999982 62.500000249999971 33.333332999999982 54.166666749999990 33.333332999999982 50.000000000000000 C37.499999750000029 50.000000000000000 45.833333250000010 50.000000000000000 50.000000000000000 50.000000000000000 z" />
<glyph unicode="Q" horiz-adv-x="100" d="M83.333332999999996 8.333333000000000 C81.249999750000029 8.333332999999982 77.083333250000010 8.333332999999982 75.000000000000000 8.333332999999982 C75.000000000000000 6.249999749999972 75.000000000000000 2.083333250000010 75.000000000000000 0.000000000000000 C58.333333250000010 0.000000000000000 24.999999750000029 0.000000000000000 8.333332999999982 0.000000000000000 C8.333332999999982 2.083333250000010 8.333332999999982 6.249999749999972 8.333332999999982 8.333332999999982 C6.249999749999972 8.333332999999982 2.083333250000010 8.333332999999982 0.000000000000000 8.333332999999982 C0.000000000000000 24.999999750000029 0.000000000000000 58.333333250000010 0.000000000000000 75.000000000000000 C2.083333250000010 75.000000000000000 6.249999749999972 75.000000000000000 8.333332999999982 75.000000000000000 C8.333332999999982 77.083333250000010 8.333332999999982 81.249999750000001 8.333332999999982 83.333332999999982 C24.999999750000029 83.333332999999982 58.333333250000010 83.333332999999982 75.000000000000000 83.333332999999982 C75.000000000000000 81.249999750000001 75.000000000000000 77.083333250000010 75.000000000000000 75.000000000000000 C77.083333250000010 75.000000000000000 81.249999750000029 75.000000000000000 83.333333000000039 75.000000000000000 C83.333333000000039 58.333333250000010 83.333333000000039 24.999999750000029 83.333333000000039 8.333332999999982 zM50.000000000000000 16.666667000000000 C50.000000000000000 29.166667000000018 50.000000000000000 54.166667000000018 50.000000000000000 66.666667000000018 C45.833333250000010 66.666667000000018 37.499999750000029 66.666667000000018 33.333332999999982 66.666667000000018 C33.333332999999982 54.166667000000018 33.333332999999982 29.166667000000018 33.333332999999982 16.666667000000018 C37.499999750000029 16.666667000000018 45.833333250000010 16.666667000000018 50.000000000000000 16.666667000000018 z" />
<glyph unicode="R" horiz-adv-x="100" d="M83.333332999999996 0.000000000000000 C74.999999750000029 0.000000000000000 58.333333250000010 0.000000000000000 50.000000000000000 0.000000000000000 C50.000000000000000 8.333333250000010 50.000000000000000 24.999999750000029 50.000000000000000 33.333332999999982 C45.833333250000010 33.333332999999982 37.499999750000029 33.333332999999982 33.333332999999982 33.333332999999982 C33.333332999999982 24.999999750000029 33.333332999999982 8.333333250000010 33.333332999999982 0.000000000000000 C24.999999750000029 0.000000000000000 8.333333250000010 0.000000000000000 0.000000000000000 0.000000000000000 C0.000000000000000 20.833333250000010 0.000000000000000 62.499999750000029 0.000000000000000 83.333332999999982 C18.750000000000000 83.333332999999982 56.250000000000000 83.333332999999982 75.000000000000000 83.333332999999982 C75.000000000000000 81.249999750000001 75.000000000000000 77.083333250000010 75.000000000000000 75.000000000000000 C77.083333250000010 75.000000000000000 81.249999750000029 75.000000000000000 83.333333000000039 75.000000000000000 C83.333333000000039 68.750000000000000 83.333333000000039 56.250000000000000 83.333333000000039 50.000000000000000 C81.249999750000029 50.000000000000000 77.083333250000010 50.000000000000000 75.000000000000000 50.000000000000000 C75.000000000000000 45.833333250000010 75.000000000000000 37.499999750000029 75.000000000000000 33.333332999999982 C77.083333250000010 33.333332999999982 81.249999750000029 33.333332999999982 83.333333000000039 33.333332999999982 C83.333333000000039 24.999999750000029 83.333333000000039 8.333333250000010 83.333333000000039 0.000000000000000 zM50.000000000000000 50.000000000000000 C50.000000000000000 54.166666749999990 50.000000000000000 62.500000249999971 50.000000000000000 66.666667000000018 C45.833333250000010 66.666667000000018 37.499999750000029 66.666667000000018 33.333332999999982 66.666667000000018 C33.333332999999982 62.500000249999971 33.333332999999982 54.166666749999990 33.333332999999982 50.000000000000000 C37.499999750000029 50.000000000000000 45.833333250000010 50.000000000000000 50.000000000000000 50.000000000000000 z" />
<glyph unicode="S" horiz-adv-x="100" d="M83.333332999999996 8.333333000000000 C81.249999750000029 8.333332999999982 77.083333250000010 8.333332999999982 75.000000000000000 8.333332999999982 C75.000000000000000 6.249999749999972 75.000000000000000 2.083333250000010 75.000000000000000 0.000000000000000 C56.250000000000000 0.000000000000000 18.750000000000000 0.000000000000000 0.000000000000000 0.000000000000000 C0.000000000000000 4.166666749999990 0.000000000000000 12.500000249999971 0.000000000000000 16.666667000000018 C12.500000000000000 16.666667000000018 37.500000000000000 16.666667000000018 50.000000000000000 16.666667000000018 C50.000000000000000 20.833333499999981 50.000000000000000 29.166666500000019 50.000000000000000 33.333332999999982 C39.583333250000010 33.333332999999982 18.749999750000029 33.333332999999982 8.333332999999982 33.333332999999982 C8.333332999999982 35.416666500000019 8.333332999999982 39.583333499999981 8.333332999999982 41.666667000000018 C6.249999749999972 41.666667000000018 2.083333250000010 41.666667000000018 0.000000000000000 41.666667000000018 C0.000000000000000 50.000000249999971 0.000000000000000 66.666666749999990 0.000000000000000 75.000000000000000 C2.083333250000010 75.000000000000000 6.249999749999972 75.000000000000000 8.333332999999982 75.000000000000000 C8.333332999999982 77.083333250000010 8.333332999999982 81.249999750000001 8.333332999999982 83.333332999999982 C27.083332999999982 83.333332999999982 64.583333000000039 83.333332999999982 83.333333000000039 83.333332999999982 C83.333333000000039 79.166666499999991 83.333333000000039 70.833333500000009 83.333333000000039 66.666667000000018 C70.833333000000039 66.666667000000018 45.833333000000039 66.666667000000018 33.333332999999982 66.666667000000018 C33.333332999999982 62.500000249999971 33.333332999999982 54.166666749999990 33.333332999999982 50.000000000000000 C43.749999750000029 50.000000000000000 64.583333250000010 50.000000000000000 75.000000000000000 50.000000000000000 C75.000000000000000 47.916666749999990 75.000000000000000 43.750000249999971 75.000000000000000 41.666667000000018 C77.083333250000010 41.666667000000018 81.249999750000029 41.666667000000018 83.333333000000039 41.666667000000018 C83.333333000000039 33.333333499999981 83.333333000000039 16.666666500000019 83.333333000000039 8.333332999999982 z" />
<glyph unicode="T" horiz-adv-x="100" d="M83.333332999999996 66.666667000000004 C77.083333000000039 66.666667000000018 64.583333000000039 66.666667000000018 58.333333000000039 66.666667000000018 C58.333333000000039 50.000000249999971 58.333333000000039 16.666666749999990 58.333333000000039 0.000000000000000 C49.999999750000029 0.000000000000000 33.333333250000010 0.000000000000000 25.000000000000000 0.000000000000000 C25.000000000000000 16.666666749999990 25.000000000000000 50.000000249999971 25.000000000000000 66.666667000000018 C18.750000000000000 66.666667000000018 6.250000000000000 66.666667000000018 0.000000000000000 66.666667000000018 C0.000000000000000 70.833333500000009 0.000000000000000 79.166666499999991 0.000000000000000 83.333332999999982 C20.833333250000010 83.333332999999982 62.499999750000029 83.333332999999982 83.333333000000039 83.333332999999982 C83.333333000000039 79.166666499999991 83.333333000000039 70.833333500000009 83.333333000000039 66.666667000000018 z" />
<glyph unicode="U" horiz-adv-x="100" d="M83.333332999999996 8.333333000000000 C81.249999750000029 8.333332999999982 77.083333250000010 8.333332999999982 75.000000000000000 8.333332999999982 C75.000000000000000 6.249999749999972 75.000000000000000 2.083333250000010 75.000000000000000 0.000000000000000 C58.333333250000010 0.000000000000000 24.999999750000029 0.000000000000000 8.333332999999982 0.000000000000000 C8.333332999999982 2.083333250000010 8.333332999999982 6.249999749999972 8.333332999999982 8.333332999999982 C6.249999749999972 8.333332999999982 2.083333250000010 8.333332999999982 0.000000000000000 8.333332999999982 C0.000000000000000 27.083332999999982 0.000000000000000 64.583332999999982 0.000000000000000 83.333332999999982 C8.333333250000010 83.333332999999982 24.999999750000029 83.333332999999982 33.333332999999982 83.333332999999982 C33.333332999999982 66.666666499999991 33.333332999999982 33.333333499999981 33.333332999999982 16.666667000000018 C37.499999750000029 16.666667000000018 45.833333250000010 16.666667000000018 50.000000000000000 16.666667000000018 C50.000000000000000 33.333333499999981 50.000000000000000 66.666666499999991 50.000000000000000 83.333332999999982 C58.333333250000010 83.333332999999982 74.999999750000029 83.333332999999982 83.333333000000039 83.333332999999982 C83.333333000000039 64.583332999999982 83.333333000000039 27.083332999999982 83.333333000000039 8.333332999999982 z" />
<glyph unicode="V" horiz-adv-x="100" d="M83.333332999999996 8.333333000000000 C81.249999750000029 8.333332999999982 77.083333250000010 8.333332999999982 75.000000000000000 8.333332999999982 C75.000000000000000 6.249999749999972 75.000000000000000 2.083333250000010 75.000000000000000 0.000000000000000 C56.250000000000000 0.000000000000000 18.750000000000000 0.000000000000000 0.000000000000000 0.000000000000000 C0.000000000000000 20.833333250000010 0.000000000000000 62.499999750000029 0.000000000000000 83.333332999999982 C8.333333250000010 83.333332999999982 24.999999750000029 83.333332999999982 33.333332999999982 83.333332999999982 C33.333332999999982 66.666666499999991 33.333332999999982 33.333333499999981 33.333332999999982 16.666667000000018 C37.499999750000029 16.666667000000018 45.833333250000010 16.666667000000018 50.000000000000000 16.666667000000018 C50.000000000000000 33.333333499999981 50.000000000000000 66.666666499999991 50.000000000000000 83.333332999999982 C58.333333250000010 83.333332999999982 74.999999750000029 83.333332999999982 83.333333000000039 83.333332999999982 C83.333333000000039 64.583332999999982 83.333333000000039 27.083332999999982 83.333333000000039 8.333332999999982 z" />
<glyph unicode="W" horiz-adv-x="150" d="M133.333333000000010 8.333333000000000 C131.249999750000029 8.333332999999982 127.083333250000010 8.333332999999982 125.000000000000000 8.333332999999982 C125.000000000000000 6.249999749999972 125.000000000000000 2.083333250000010 125.000000000000000 0.000000000000000 C93.750000000000000 0.000000000000000 31.250000000000000 0.000000000000000 0.000000000000000 0.000000000000000 C0.000000000000000 20.833333250000010 0.000000000000000 62.499999750000029 0.000000000000000 83.333332999999982 C8.333333250000010 83.333332999999982 24.999999750000029 83.333332999999982 33.333332999999982 83.333332999999982 C33.333332999999982 66.666666499999991 33.333332999999982 33.333333499999981 33.333332999999982 16.666667000000018 C37.499999750000029 16.666667000000018 45.833333250000010 16.666667000000018 50.000000000000000 16.666667000000018 C50.000000000000000 33.333333499999981 50.000000000000000 66.666666499999991 50.000000000000000 83.333332999999982 C58.333333250000010 83.333332999999982 74.999999750000029 83.333332999999982 83.333333000000039 83.333332999999982 C83.333333000000039 66.666666499999991 83.333333000000039 33.333333499999981 83.333333000000039 16.666667000000018 C87.499999750000029 16.666667000000018 95.833333250000010 16.666667000000018 100.000000000000000 16.666667000000018 C100.000000000000000 33.333333499999981 100.000000000000000 66.666666499999991 100.000000000000000 83.333332999999982 C108.333333250000010 83.333332999999982 124.999999750000029 83.333332999999982 133.333333000000039 83.333332999999982 C133.333333000000039 64.583332999999982 133.333333000000039 27.083332999999982 133.333333000000039 8.333332999999982 z" />
<glyph unicode="X" horiz-adv-x="100" d="M83.333332999999996 0.000000000000000 C74.999999750000029 0.000000000000000 58.333333250000010 0.000000000000000 50.000000000000000 0.000000000000000 C50.000000000000000 8.333333250000010 50.000000000000000 24.999999750000029 50.000000000000000 33.333332999999982 C45.833333250000010 33.333332999999982 37.499999750000029 33.333332999999982 33.333332999999982 33.333332999999982 C33.333332999999982 24.999999750000029 33.333332999999982 8.333333250000010 33.333332999999982 0.000000000000000 C24.999999750000029 0.000000000000000 8.333333250000010 0.000000000000000 0.000000000000000 0.000000000000000 C0.000000000000000 8.333333250000010 0.000000000000000 24.999999750000029 0.000000000000000 33.333332999999982 C2.083333250000010 33.333332999999982 6.249999749999972 33.333332999999982 8.333332999999982 33.333332999999982 C8.333332999999982 37.499999750000029 8.333332999999982 45.833333250000010 8.333332999999982 50.000000000000000 C6.249999749999972 50.000000000000000 2.083333250000010 50.000000000000000 0.000000000000000 50.000000000000000 C0.000000000000000 58.333333250000010 0.000000000000000 74.999999750000001 0.000000000000000 83.333332999999982 C8.333333250000010 83.333332999999982 24.999999750000029 83.333332999999982 33.333332999999982 83.333332999999982 C33.333332999999982 74.999999750000001 33.333332999999982 58.333333250000010 33.333332999999982 50.000000000000000 C37.499999750000029 50.000000000000000 45.833333250000010 50.000000000000000 50.000000000000000 50.000000000000000 C50.000000000000000 58.333333250000010 50.000000000000000 74.999999750000001 50.000000000000000 83.333332999999982 C58.333333250000010 83.333332999999982 74.999999750000029 83.333332999999982 83.333333000000039 83.333332999999982 C83.333333000000039 74.999999750000001 83.333333000000039 58.333333250000010 83.333333000000039 50.000000000000000 C81.249999750000029 50.000000000000000 77.083333250000010 50.000000000000000 75.000000000000000 50.000000000000000 C75.000000000000000 45.833333250000010 75.000000000000000 37.499999750000029 75.000000000000000 33.333332999999982 C77.083333250000010 33.333332999999982 81.249999750000029 33.333332999999982 83.333333000000039 33.333332999999982 C83.333333000000039 24.999999750000029 83.333333000000039 8.333333250000010 83.333333000000039 0.000000000000000 z" />
<glyph unicode="Y" horiz-adv-x="100" d="M83.333332999999996 41.666666999999997 C81.249999750000029 41.666667000000018 77.083333250000010 41.666667000000018 75.000000000000000 41.666667000000018 C75.000000000000000 39.583333499999981 75.000000000000000 35.416666500000019 75.000000000000000 33.333332999999982 C70.833333250000010 33.333332999999982 62.499999750000029 33.333332999999982 58.333333000000039 33.333332999999982 C58.333333000000039 24.999999750000029 58.333333000000039 8.333333250000010 58.333333000000039 0.000000000000000 C49.999999750000029 0.000000000000000 33.333333250000010 0.000000000000000 25.000000000000000 0.000000000000000 C25.000000000000000 8.333333250000010 25.000000000000000 24.999999750000029 25.000000000000000 33.333332999999982 C20.833333250000010 33.333332999999982 12.499999750000029 33.333332999999982 8.333332999999982 33.333332999999982 C8.333332999999982 35.416666500000019 8.333332999999982 39.583333499999981 8.333332999999982 41.666667000000018 C6.249999749999972 41.666667000000018 2.083333250000010 41.666667000000018 0.000000000000000 41.666667000000018 C0.000000000000000 52.083333499999981 0.000000000000000 72.916666499999991 0.000000000000000 83.333332999999982 C8.333333250000010 83.333332999999982 24.999999750000029 83.333332999999982 33.333332999999982 83.333332999999982 C33.333332999999982 74.999999750000001 33.333332999999982 58.333333250000010 33.333332999999982 50.000000000000000 C37.499999750000029 50.000000000000000 45.833333250000010 50.000000000000000 50.000000000000000 50.000000000000000 C50.000000000000000 58.333333250000010 50.000000000000000 74.999999750000001 50.000000000000000 83.333332999999982 C58.333333250000010 83.333332999999982 74.999999750000029 83.333332999999982 83.333333000000039 83.333332999999982 C83.333333000000039 72.916666499999991 83.333333000000039 52.083333499999981 83.333333000000039 41.666667000000018 z" />
<glyph unicode="Z" horiz-adv-x="100" d="M83.333332999999996 0.000000000000000 C62.499999750000029 0.000000000000000 20.833333250000010 0.000000000000000 0.000000000000000 0.000000000000000 C0.000000000000000 10.416666749999990 0.000000000000000 31.250000249999971 0.000000000000000 41.666667000000018 C2.083333250000010 41.666667000000018 6.249999749999972 41.666667000000018 8.333332999999982 41.666667000000018 C8.333332999999982 43.750000249999971 8.333332999999982 47.916666749999990 8.333332999999982 50.000000000000000 C18.749999750000029 50.000000000000000 39.583333250000010 50.000000000000000 50.000000000000000 50.000000000000000 C50.000000000000000 54.166666749999990 50.000000000000000 62.500000249999971 50.000000000000000 66.666667000000018 C37.500000000000000 66.666667000000018 12.500000000000000 66.666667000000018 0.000000000000000 66.666667000000018 C0.000000000000000 70.833333500000009 0.000000000000000 79.166666499999991 0.000000000000000 83.333332999999982 C20.833333250000010 83.333332999999982 62.499999750000029 83.333332999999982 83.333333000000039 83.333332999999982 C83.333333000000039 72.916666499999991 83.333333000000039 52.083333499999981 83.333333000000039 41.666667000000018 C81.249999750000029 41.666667000000018 77.083333250000010 41.666667000000018 75.000000000000000 41.666667000000018 C75.000000000000000 39.583333499999981 75.000000000000000 35.416666500000019 75.000000000000000 33.333332999999982 C64.583333250000010 33.333332999999982 43.749999750000029 33.333332999999982 33.333332999999982 33.333332999999982 C33.333332999999982 29.166666500000019 33.333332999999982 20.833333499999981 33.333332999999982 16.666667000000018 C45.833333000000039 16.666667000000018 70.833333000000039 16.666667000000018 83.333333000000039 16.666667000000018 C83.333333000000039 12.500000249999971 83.333333000000039 4.166666749999990 83.333333000000039 0.000000000000000 z" />
<glyph unicode="[" horiz-adv-x="50" d="M50.000000000000000 0.000000000000000 C37.500000000000000 0.000000000000000 12.500000000000000 0.000000000000000 0.000000000000000 0.000000000000000 C0.000000000000000 20.833333250000010 0.000000000000000 62.499999750000029 0.000000000000000 83.333332999999982 C12.500000000000000 83.333332999999982 37.500000000000000 83.333332999999982 50.000000000000000 83.333332999999982 C50.000000000000000 79.166666499999991 50.000000000000000 70.833333500000009 50.000000000000000 66.666667000000018 C45.833333250000010 66.666667000000018 37.499999750000029 66.666667000000018 33.333332999999982 66.666667000000018 C33.333332999999982 54.166667000000018 33.333332999999982 29.166667000000018 33.333332999999982 16.666667000000018 C37.499999750000029 16.666667000000018 45.833333250000010 16.666667000000018 50.000000000000000 16.666667000000018 C50.000000000000000 12.500000249999971 50.000000000000000 4.166666749999990 50.000000000000000 0.000000000000000 z" />
<glyph unicode="]" horiz-adv-x="50" d="M50.000000000000000 0.000000000000000 C37.500000000000000 0.000000000000000 12.500000000000000 0.000000000000000 0.000000000000000 0.000000000000000 C0.000000000000000 4.166666749999990 0.000000000000000 12.500000249999971 0.000000000000000 16.666667000000018 C4.166666749999990 16.666667000000018 12.500000249999971 16.666667000000018 16.666667000000018 16.666667000000018 C16.666667000000018 29.166667000000018 16.666667000000018 54.166667000000018 16.666667000000018 66.666667000000018 C12.500000249999971 66.666667000000018 4.166666749999990 66.666667000000018 0.000000000000000 66.666667000000018 C0.000000000000000 70.833333500000009 0.000000000000000 79.166666499999991 0.000000000000000 83.333332999999982 C12.500000000000000 83.333332999999982 37.500000000000000 83.333332999999982 50.000000000000000 83.333332999999982 C50.000000000000000 62.499999750000029 50.000000000000000 20.833333250000010 50.000000000000000 0.000000000000000 z" />
<glyph unicode="a" horiz-adv-x="100" d="M83.333332999999996 0.000000000000000 C74.999999750000029 0.000000000000000 58.333333250000010 0.000000000000000 50.000000000000000 0.000000000000000 C50.000000000000000 8.333333250000010 50.000000000000000 24.999999750000029 50.000000000000000 33.333332999999982 C45.833333250000010 33.333332999999982 37.499999750000029 33.333332999999982 33.333332999999982 33.333332999999982 C33.333332999999982 24.999999750000029 33.333332999999982 8.333333250000010 33.333332999999982 0.000000000000000 C24.999999750000029 0.000000000000000 8.333333250000010 0.000000000000000 0.000000000000000 0.000000000000000 C0.000000000000000 18.750000000000000 0.000000000000000 56.250000000000000 0.000000000000000 75.000000000000000 C2.083333250000010 75.000000000000000 6.249999749999972 75.000000000000000 8.333332999999982 75.000000000000000 C8.333332999999982 77.083333250000010 8.333332999999982 81.249999750000001 8.333332999999982 83.333332999999982 C24.999999750000029 83.333332999999982 58.333333250000010 83.333332999999982 75.000000000000000 83.333332999999982 C75.000000000000000 81.249999750000001 75.000000000000000 77.083333250000010 75.000000000000000 75.000000000000000 C77.083333250000010 75.000000000000000 81.249999750000029 75.000000000000000 83.333333000000039 75.000000000000000 C83.333333000000039 56.250000000000000 83.333333000000039 18.750000000000000 83.333333000000039 0.000000000000000 zM50.000000000000000 50.000000000000000 C50.000000000000000 54.166666749999990 50.000000000000000 62.500000249999971 50.000000000000000 66.666667000000018 C45.833333250000010 66.666667000000018 37.499999750000029 66.666667000000018 33.333332999999982 66.666667000000018 C33.333332999999982 62.500000249999971 33.333332999999982 54.166666749999990 33.333332999999982 50.000000000000000 C37.499999750000029 50.000000000000000 45.833333250000010 50.000000000000000 50.000000000000000 50.000000000000000 z" />
<glyph unicode="b" horiz-adv-x="100" d="M83.333332999999996 8.333333000000000 C81.249999750000029 8.333332999999982 77.083333250000010 8.333332999999982 75.000000000000000 8.333332999999982 C75.000000000000000 6.249999749999972 75.000000000000000 2.083333250000010 75.000000000000000 0.000000000000000 C56.250000000000000 0.000000000000000 18.750000000000000 0.000000000000000 0.000000000000000 0.000000000000000 C0.000000000000000 20.833333250000010 0.000000000000000 62.499999750000029 0.000000000000000 83.333332999999982 C18.750000000000000 83.333332999999982 56.250000000000000 83.333332999999982 75.000000000000000 83.333332999999982 C75.000000000000000 81.249999750000001 75.000000000000000 77.083333250000010 75.000000000000000 75.000000000000000 C77.083333250000010 75.000000000000000 81.249999750000029 75.000000000000000 83.333333000000039 75.000000000000000 C83.333333000000039 68.750000000000000 83.333333000000039 56.250000000000000 83.333333000000039 50.000000000000000 C81.249999750000029 50.000000000000000 77.083333250000010 50.000000000000000 75.000000000000000 50.000000000000000 C75.000000000000000 45.833333250000010 75.000000000000000 37.499999750000029 75.000000000000000 33.333332999999982 C77.083333250000010 33.333332999999982 81.249999750000029 33.333332999999982 83.333333000000039 33.333332999999982 C83.333333000000039 27.083332999999982 83.333333000000039 14.583332999999982 83.333333000000039 8.333332999999982 zM50.000000000000000 50.000000000000000 C50.000000000000000 54.166666749999990 50.000000000000000 62.500000249999971 50.000000000000000 66.666667000000018 C45.833333250000010 66.666667000000018 37.499999750000029 66.666667000000018 33.333332999999982 66.666667000000018 C33.333332999999982 62.500000249999971 33.333332999999982 54.166666749999990 33.333332999999982 50.000000000000000 C37.499999750000029 50.000000000000000 45.833333250000010 50.000000000000000 50.000000000000000 50.000000000000000 zM50.000000000000000 16.666667000000000 C50.000000000000000 20.833333499999981 50.000000000000000 29.166666500000019 50.000000000000000 33.333332999999982 C45.833333250000010 33.333332999999982 37.499999750000029 33.333332999999982 33.333332999999982 33.333332999999982 C33.333332999999982 29.166666500000019 33.333332999999982 20.833333499999981 33.333332999999982 16.666667000000018 C37.499999750000029 16.666667000000018 45.833333250000010 16.666667000000018 50.000000000000000 16.666667000000018 z" />
<glyph unicode="c" horiz-adv-x="100" d="M83.333332999999996 0.000000000000000 C64.583333000000039 0.000000000000000 27.083332999999982 0.000000000000000 8.333332999999982 0.000000000000000 C8.333332999999982 2.083333250000010 8.333332999999982 6.249999749999972 8.333332999999982 8.333332999999982 C6.249999749999972 8.333332999999982 2.083333250000010 8.333332999999982 0.000000000000000 8.333332999999982 C0.000000000000000 24.999999750000029 0.000000000000000 58.333333250000010 0.000000000000000 75.000000000000000 C2.083333250000010 75.000000000000000 6.249999749999972 75.000000000000000 8.333332999999982 75.000000000000000 C8.333332999999982 77.083333250000010 8.333332999999982 81.249999750000001 8.333332999999982 83.333332999999982 C27.083332999999982 83.333332999999982 64.583333000000039 83.333332999999982 83.333333000000039 83.333332999999982 C83.333333000000039 79.166666499999991 83.333333000000039 70.833333500000009 83.333333000000039 66.666667000000018 C70.833333000000039 66.666667000000018 45.833333000000039 66.666667000000018 33.333332999999982 66.666667000000018 C33.333332999999982 54.166667000000018 33.333332999999982 29.166667000000018 33.333332999999982 16.666667000000018 C45.833333000000039 16.666667000000018 70.833333000000039 16.666667000000018 83.333333000000039 16.666667000000018 C83.333333000000039 12.500000249999971 83.333333000000039 4.166666749999990 83.333333000000039 0.000000000000000 z" />
<glyph unicode="d" horiz-adv-x="100" d="M83.333332999999996 8.333333000000000 C81.249999750000029 8.333332999999982 77.083333250000010 8.333332999999982 75.000000000000000 8.333332999999982 C75.000000000000000 6.249999749999972 75.000000000000000 2.083333250000010 75.000000000000000 0.000000000000000 C56.250000000000000 0.000000000000000 18.750000000000000 0.000000000000000 0.000000000000000 0.000000000000000 C0.000000000000000 20.833333250000010 0.000000000000000 62.499999750000029 0.000000000000000 83.333332999999982 C18.750000000000000 83.333332999999982 56.250000000000000 83.333332999999982 75.000000000000000 83.333332999999982 C75.000000000000000 81.249999750000001 75.000000000000000 77.083333250000010 75.000000000000000 75.000000000000000 C77.083333250000010 75.000000000000000 81.249999750000029 75.000000000000000 83.333333000000039 75.000000000000000 C83.333333000000039 58.333333250000010 83.333333000000039 24.999999750000029 83.333333000000039 8.333332999999982 zM50.000000000000000 16.666667000000000 C50.000000000000000 29.166667000000018 50.000000000000000 54.166667000000018 50.000000000000000 66.666667000000018 C45.833333250000010 66.666667000000018 37.499999750000029 66.666667000000018 33.333332999999982 66.666667000000018 C33.333332999999982 54.166667000000018 33.333332999999982 29.166667000000018 33.333332999999982 16.666667000000018 C37.499999750000029 16.666667000000018 45.833333250000010 16.666667000000018 50.000000000000000 16.666667000000018 z" />
<glyph unicode="e" horiz-adv-x="100" d="M83.333332999999996 0.000000000000000 C64.583333000000039 0.000000000000000 27.083332999999982 0.000000000000000 8.333332999999982 0.000000000000000 C8.333332999999982 2.083333250000010 8.333332999999982 6.249999749999972 8.333332999999982 8.333332999999982 C6.249999749999972 8.333332999999982 2.083333250000010 8.333332999999982 0.000000000000000 8.333332999999982 C0.000000000000000 24.999999750000029 0.000000000000000 58.333333250000010 0.000000000000000 75.000000000000000 C2.083333250000010 75.000000000000000 6.249999749999972 75.000000000000000 8.333332999999982 75.000000000000000 C8.333332999999982 77.083333250000010 8.333332999999982 81.249999750000001 8.333332999999982 83.333332999999982 C27.083332999999982 83.333332999999982 64.583333000000039 83.333332999999982 83.333333000000039 83.333332999999982 C83.333333000000039 79.166666499999991 83.333333000000039 70.833333500000009 83.333333000000039 66.666667000000018 C70.833333000000039 66.666667000000018 45.833333000000039 66.666667000000018 33.333332999999982 66.666667000000018 C33.333332999999982 62.500000249999971 33.333332999999982 54.166666749999990 33.333332999999982 50.000000000000000 C39.583332999999982 50.000000000000000 52.083333000000039 50.000000000000000 58.333333000000039 50.000000000000000 C58.333333000000039 45.833333250000010 58.333333000000039 37.499999750000029 58.333333000000039 33.333332999999982 C52.083333000000039 33.333332999999982 39.583332999999982 33.333332999999982 33.333332999999982 33.333332999999982 C33.333332999999982 29.166666500000019 33.333332999999982 20.833333499999981 33.333332999999982 16.666667000000018 C45.833333000000039 16.666667000000018 70.833333000000039 16.666667000000018 83.333333000000039 16.666667000000018 C83.333333000000039 12.500000249999971 83.333333000000039 4.166666749999990 83.333333000000039 0.000000000000000 z" />
<glyph unicode="f" horiz-adv-x="100" d="M83.333332999999996 66.666667000000004 C70.833333000000039 66.666667000000018 45.833333000000039 66.666667000000018 33.333332999999982 66.666667000000018 C33.333332999999982 62.500000249999971 33.333332999999982 54.166666749999990 33.333332999999982 50.000000000000000 C39.583332999999982 50.000000000000000 52.083333000000039 50.000000000000000 58.333333000000039 50.000000000000000 C58.333333000000039 45.833333250000010 58.333333000000039 37.499999750000029 58.333333000000039 33.333332999999982 C52.083333000000039 33.333332999999982 39.583332999999982 33.333332999999982 33.333332999999982 33.333332999999982 C33.333332999999982 24.999999750000029 33.333332999999982 8.333333250000010 33.333332999999982 0.000000000000000 C24.999999750000029 0.000000000000000 8.333333250000010 0.000000000000000 0.000000000000000 0.000000000000000 C0.000000000000000 18.750000000000000 0.000000000000000 56.250000000000000 0.000000000000000 75.000000000000000 C2.083333250000010 75.000000000000000 6.249999749999972 75.000000000000000 8.333332999999982 75.000000000000000 C8.333332999999982 77.083333250000010 8.333332999999982 81.249999750000001 8.333332999999982 83.333332999999982 C27.083332999999982 83.333332999999982 64.583333000000039 83.333332999999982 83.333333000000039 83.333332999999982 C83.333333000000039 79.166666499999991 83.333333000000039 70.833333500000009 83.333333000000039 66.666667000000018 z" />
<glyph unicode="g" horiz-adv-x="100" d="M83.333332999999996 0.000000000000000 C64.583333000000039 0.000000000000000 27.083332999999982 0.000000000000000 8.333332999999982 0.000000000000000 C8.333332999999982 2.083333250000010 8.333332999999982 6.249999749999972 8.333332999999982 8.333332999999982 C6.249999749999972 8.333332999999982 2.083333250000010 8.333332999999982 0.000000000000000 8.333332999999982 C0.000000000000000 24.999999750000029 0.000000000000000 58.333333250000010 0.000000000000000 75.000000000000000 C2.083333250000010 75.000000000000000 6.249999749999972 75.000000000000000 8.333332999999982 75.000000000000000 C8.333332999999982 77.083333250000010 8.333332999999982 81.249999750000001 8.333332999999982 83.333332999999982 C27.083332999999982 83.333332999999982 64.583333000000039 83.333332999999982 83.333333000000039 83.333332999999982 C83.333333000000039 79.166666499999991 83.333333000000039 70.833333500000009 83.333333000000039 66.666667000000018 C70.833333000000039 66.666667000000018 45.833333000000039 66.666667000000018 33.333332999999982 66.666667000000018 C33.333332999999982 54.166667000000018 33.333332999999982 29.166667000000018 33.333332999999982 16.666667000000018 C37.499999750000029 16.666667000000018 45.833333250000010 16.666667000000018 50.000000000000000 16.666667000000018 C50.000000000000000 20.833333499999981 50.000000000000000 29.166666500000019 50.000000000000000 33.333332999999982 C47.916666749999990 33.333332999999982 43.750000249999971 33.333332999999982 41.666667000000018 33.333332999999982 C41.666667000000018 37.499999750000029 41.666667000000018 45.833333250000010 41.666667000000018 50.000000000000000 C52.083333499999981 50.000000000000000 72.916666500000019 50.000000000000000 83.333333000000039 50.000000000000000 C83.333333000000039 37.500000000000000 83.333333000000039 12.500000000000000 83.333333000000039 0.000000000000000 z" />
<glyph unicode="h" horiz-adv-x="100" d="M83.333332999999996 0.000000000000000 C74.999999750000029 0.000000000000000 58.333333250000010 0.000000000000000 50.000000000000000 0.000000000000000 C50.000000000000000 8.333333250000010 50.000000000000000 24.999999750000029 50.000000000000000 33.333332999999982 C45.833333250000010 33.333332999999982 37.499999750000029 33.333332999999982 33.333332999999982 33.333332999999982 C33.333332999999982 24.999999750000029 33.333332999999982 8.333333250000010 33.333332999999982 0.000000000000000 C24.999999750000029 0.000000000000000 8.333333250000010 0.000000000000000 0.000000000000000 0.000000000000000 C0.000000000000000 20.833333250000010 0.000000000000000 62.499999750000029 0.000000000000000 83.333332999999982 C8.333333250000010 83.333332999999982 24.999999750000029 83.333332999999982 33.333332999999982 83.333332999999982 C33.333332999999982 74.999999750000001 33.333332999999982 58.333333250000010 33.333332999999982 50.000000000000000 C37.499999750000029 50.000000000000000 45.833333250000010 50.000000000000000 50.000000000000000 50.000000000000000 C50.000000000000000 58.333333250000010 50.000000000000000 74.999999750000001 50.000000000000000 83.333332999999982 C58.333333250000010 83.333332999999982 74.999999750000029 83.333332999999982 83.333333000000039 83.333332999999982 C83.333333000000039 62.499999750000029 83.333333000000039 20.833333250000010 83.333333000000039 0.000000000000000 z" />
<glyph unicode="i" horiz-adv-x="50" d="M33.333333000000003 0.000000000000000 C24.999999750000029 0.000000000000000 8.333333250000010 0.000000000000000 0.000000000000000 0.000000000000000 C0.000000000000000 20.833333250000010 0.000000000000000 62.499999750000029 0.000000000000000 83.333332999999982 C8.333333250000010 83.333332999999982 24.999999750000029 83.333332999999982 33.333332999999982 83.333332999999982 C33.333332999999982 62.499999750000029 33.333332999999982 20.833333250000010 33.333332999999982 0.000000000000000 z" />
<glyph unicode="j" horiz-adv-x="100" d="M83.333332999999996 8.333333000000000 C81.249999750000029 8.333332999999982 77.083333250000010 8.333332999999982 75.000000000000000 8.333332999999982 C75.000000000000000 6.249999749999972 75.000000000000000 2.083333250000010 75.000000000000000 0.000000000000000 C56.250000000000000 0.000000000000000 18.750000000000000 0.000000000000000 0.000000000000000 0.000000000000000 C0.000000000000000 4.166666749999990 0.000000000000000 12.500000249999971 0.000000000000000 16.666667000000018 C12.500000000000000 16.666667000000018 37.500000000000000 16.666667000000018 50.000000000000000 16.666667000000018 C50.000000000000000 33.333333499999981 50.000000000000000 66.666666499999991 50.000000000000000 83.333332999999982 C58.333333250000010 83.333332999999982 74.999999750000029 83.333332999999982 83.333333000000039 83.333332999999982 C83.333333000000039 64.583332999999982 83.333333000000039 27.083332999999982 83.333333000000039 8.333332999999982 z" />
<glyph unicode="k" horiz-adv-x="100" d="M83.333332999999996 0.000000000000000 C74.999999750000029 0.000000000000000 58.333333250000010 0.000000000000000 50.000000000000000 0.000000000000000 C50.000000000000000 8.333333250000010 50.000000000000000 24.999999750000029 50.000000000000000 33.333332999999982 C45.833333250000010 33.333332999999982 37.499999750000029 33.333332999999982 33.333332999999982 33.333332999999982 C33.333332999999982 24.999999750000029 33.333332999999982 8.333333250000010 33.333332999999982 0.000000000000000 C24.999999750000029 0.000000000000000 8.333333250000010 0.000000000000000 0.000000000000000 0.000000000000000 C0.000000000000000 20.833333250000010 0.000000000000000 62.499999750000029 0.000000000000000 83.333332999999982 C8.333333250000010 83.333332999999982 24.999999750000029 83.333332999999982 33.333332999999982 83.333332999999982 C33.333332999999982 74.999999750000001 33.333332999999982 58.333333250000010 33.333332999999982 50.000000000000000 C37.499999750000029 50.000000000000000 45.833333250000010 50.000000000000000 50.000000000000000 50.000000000000000 C50.000000000000000 58.333333250000010 50.000000000000000 74.999999750000001 50.000000000000000 83.333332999999982 C58.333333250000010 83.333332999999982 74.999999750000029 83.333332999999982 83.333333000000039 83.333332999999982 C83.333333000000039 74.999999750000001 83.333333000000039 58.333333250000010 83.333333000000039 50.000000000000000 C81.249999750000029 50.000000000000000 77.083333250000010 50.000000000000000 75.000000000000000 50.000000000000000 C75.000000000000000 45.833333250000010 75.000000000000000 37.499999750000029 75.000000000000000 33.333332999999982 C77.083333250000010 33.333332999999982 81.249999750000029 33.333332999999982 83.333333000000039 33.333332999999982 C83.333333000000039 24.999999750000029 83.333333000000039 8.333333250000010 83.333333000000039 0.000000000000000 z" />
<glyph unicode="l" horiz-adv-x="100" d="M83.333332999999996 0.000000000000000 C62.499999750000029 0.000000000000000 20.833333250000010 0.000000000000000 0.000000000000000 0.000000000000000 C0.000000000000000 20.833333250000010 0.000000000000000 62.499999750000029 0.000000000000000 83.333332999999982 C8.333333250000010 83.333332999999982 24.999999750000029 83.333332999999982 33.333332999999982 83.333332999999982 C33.333332999999982 66.666666499999991 33.333332999999982 33.333333499999981 33.333332999999982 16.666667000000018 C45.833333000000039 16.666667000000018 70.833333000000039 16.666667000000018 83.333333000000039 16.666667000000018 C83.333333000000039 12.500000249999971 83.333333000000039 4.166666749999990 83.333333000000039 0.000000000000000 z" />
<glyph unicode="m" horiz-adv-x="150" d="M133.333333000000010 0.000000000000000 C124.999999750000029 0.000000000000000 108.333333250000010 0.000000000000000 100.000000000000000 0.000000000000000 C100.000000000000000 16.666666749999990 100.000000000000000 50.000000249999971 100.000000000000000 66.666667000000018 C95.833333250000010 66.666667000000018 87.499999750000029 66.666667000000018 83.333333000000039 66.666667000000018 C83.333333000000039 50.000000249999971 83.333333000000039 16.666666749999990 83.333333000000039 0.000000000000000 C74.999999750000029 0.000000000000000 58.333333250000010 0.000000000000000 50.000000000000000 0.000000000000000 C50.000000000000000 16.666666749999990 50.000000000000000 50.000000249999971 50.000000000000000 66.666667000000018 C45.833333250000010 66.666667000000018 37.499999750000029 66.666667000000018 33.333332999999982 66.666667000000018 C33.333332999999982 50.000000249999971 33.333332999999982 16.666666749999990 33.333332999999982 0.000000000000000 C24.999999750000029 0.000000000000000 8.333333250000010 0.000000000000000 0.000000000000000 0.000000000000000 C0.000000000000000 20.833333250000010 0.000000000000000 62.499999750000029 0.000000000000000 83.333332999999982 C31.250000000000000 83.333332999999982 93.750000000000000 83.333332999999982 125.000000000000000 83.333332999999982 C125.000000000000000 81.249999750000001 125.000000000000000 77.083333250000010 125.000000000000000 75.000000000000000 C127.083333250000010 75.000000000000000 131.249999750000029 75.000000000000000 133.333333000000039 75.000000000000000 C133.333333000000039 56.250000000000000 133.333333000000039 18.750000000000000 133.333333000000039 0.000000000000000 z" />
<glyph unicode="n" horiz-adv-x="100" d="M83.333332999999996 0.000000000000000 C74.999999750000029 0.000000000000000 58.333333250000010 0.000000000000000 50.000000000000000 0.000000000000000 C50.000000000000000 16.666666749999990 50.000000000000000 50.000000249999971 50.000000000000000 66.666667000000018 C45.833333250000010 66.666667000000018 37.499999750000029 66.666667000000018 33.333332999999982 66.666667000000018 C33.333332999999982 50.000000249999971 33.333332999999982 16.666666749999990 33.333332999999982 0.000000000000000 C24.999999750000029 0.000000000000000 8.333333250000010 0.000000000000000 0.000000000000000 0.000000000000000 C0.000000000000000 20.833333250000010 0.000000000000000 62.499999750000029 0.000000000000000 83.333332999999982 C18.750000000000000 83.333332999999982 56.250000000000000 83.333332999999982 75.000000000000000 83.333332999999982 C75.000000000000000 81.249999750000001 75.000000000000000 77.083333250000010 75.000000000000000 75.000000000000000 C77.083333250000010 75.000000000000000 81.249999750000029 75.000000000000000 83.333333000000039 75.000000000000000 C83.333333000000039 56.250000000000000 83.333333000000039 18.750000000000000 83.333333000000039 0.000000000000000 z" />
<glyph unicode="o" horiz-adv-x="100" d="M83.333332999999996 8.333333000000000 C81.249999750000029 8.333332999999982 77.083333250000010 8.333332999999982 75.000000000000000 8.333332999999982 C75.000000000000000 6.249999749999972 75.000000000000000 2.083333250000010 75.000000000000000 0.000000000000000 C58.333333250000010 0.000000000000000 24.999999750000029 0.000000000000000 8.333332999999982 0.000000000000000 C8.333332999999982 2.083333250000010 8.333332999999982 6.249999749999972 8.333332999999982 8.333332999999982 C6.249999749999972 8.333332999999982 2.083333250000010 8.333332999999982 0.000000000000000 8.333332999999982 C0.000000000000000 24.999999750000029 0.000000000000000 58.333333250000010 0.000000000000000 75.000000000000000 C2.083333250000010 75.000000000000000 6.249999749999972 75.000000000000000 8.333332999999982 75.000000000000000 C8.333332999999982 77.083333250000010 8.333332999999982 81.249999750000001 8.333332999999982 83.333332999999982 C24.999999750000029 83.333332999999982 58.333333250000010 83.333332999999982 75.000000000000000 83.333332999999982 C75.000000000000000 81.249999750000001 75.000000000000000 77.083333250000010 75.000000000000000 75.000000000000000 C77.083333250000010 75.000000000000000 81.249999750000029 75.000000000000000 83.333333000000039 75.000000000000000 C83.333333000000039 58.333333250000010 83.333333000000039 24.999999750000029 83.333333000000039 8.333332999999982 zM50.000000000000000 16.666667000000000 C50.000000000000000 29.166667000000018 50.000000000000000 54.166667000000018 50.000000000000000 66.666667000000018 C45.833333250000010 66.666667000000018 37.499999750000029 66.666667000000018 33.333332999999982 66.666667000000018 C33.333332999999982 54.166667000000018 33.333332999999982 29.166667000000018 33.333332999999982 16.666667000000018 C37.499999750000029 16.666667000000018 45.833333250000010 16.666667000000018 50.000000000000000 16.666667000000018 z" />
<glyph unicode="p" horiz-adv-x="100" d="M83.333332999999996 41.666666999999997 C81.249999750000029 41.666667000000018 77.083333250000010 41.666667000000018 75.000000000000000 41.666667000000018 C75.000000000000000 39.583333499999981 75.000000000000000 35.416666500000019 75.000000000000000 33.333332999999982 C64.583333250000010 33.333332999999982 43.749999750000029 33.333332999999982 33.333332999999982 33.333332999999982 C33.333332999999982 24.999999750000029 33.333332999999982 8.333333250000010 33.333332999999982 0.000000000000000 C24.999999750000029 0.000000000000000 8.333333250000010 0.000000000000000 0.000000000000000 0.000000000000000 C0.000000000000000 20.833333250000010 0.000000000000000 62.499999750000029 0.000000000000000 83.333332999999982 C18.750000000000000 83.333332999999982 56.250000000000000 83.333332999999982 75.000000000000000 83.333332999999982 C75.000000000000000 81.249999750000001 75.000000000000000 77.083333250000010 75.000000000000000 75.000000000000000 C77.083333250000010 75.000000000000000 81.249999750000029 75.000000000000000 83.333333000000039 75.000000000000000 C83.333333000000039 66.666666749999990 83.333333000000039 50.000000249999971 83.333333000000039 41.666667000000018 zM50.000000000000000 50.000000000000000 C50.000000000000000 54.166666749999990 50.000000000000000 62.500000249999971 50.000000000000000 66.666667000000018 C45.833333250000010 66.666667000000018 37.499999750000029 66.666667000000018 33.333332999999982 66.666667000000018 C33.333332999999982 62.500000249999971 33.333332999999982 54.166666749999990 33.333332999999982 50.000000000000000 C37.499999750000029 50.000000000000000 45.833333250000010 50.000000000000000 50.000000000000000 50.000000000000000 z" />
<glyph unicode="q" horiz-adv-x="100" d="M83.333332999999996 8.333333000000000 C81.249999750000029 8.333332999999982 77.083333250000010 8.333332999999982 75.000000000000000 8.333332999999982 C75.000000000000000 6.249999749999972 75.000000000000000 2.083333250000010 75.000000000000000 0.000000000000000 C58.333333250000010 0.000000000000000 24.999999750000029 0.000000000000000 8.333332999999982 0.000000000000000 C8.333332999999982 2.083333250000010 8.333332999999982 6.249999749999972 8.333332999999982 8.333332999999982 C6.249999749999972 8.333332999999982 2.083333250000010 8.333332999999982 0.000000000000000 8.333332999999982 C0.000000000000000 24.999999750000029 0.000000000000000 58.333333250000010 0.000000000000000 75.000000000000000 C2.083333250000010 75.000000000000000 6.249999749999972 75.000000000000000 8.333332999999982 75.000000000000000 C8.333332999999982 77.083333250000010 8.333332999999982 81.249999750000001 8.333332999999982 83.333332999999982 C24.999999750000029 83.333332999999982 58.333333250000010 83.333332999999982 75.000000000000000 83.333332999999982 C75.000000000000000 81.249999750000001 75.000000000000000 77.083333250000010 75.000000000000000 75.000000000000000 C77.083333250000010 75.000000000000000 81.249999750000029 75.000000000000000 83.333333000000039 75.000000000000000 C83.333333000000039 58.333333250000010 83.333333000000039 24.999999750000029 83.333333000000039 8.333332999999982 zM50.000000000000000 16.666667000000000 C50.000000000000000 29.166667000000018 50.000000000000000 54.166667000000018 50.000000000000000 66.666667000000018 C45.833333250000010 66.666667000000018 37.499999750000029 66.666667000000018 33.333332999999982 66.666667000000018 C33.333332999999982 54.166667000000018 33.333332999999982 29.166667000000018 33.333332999999982 16.666667000000018 C37.499999750000029 16.666667000000018 45.833333250000010 16.666667000000018 50.000000000000000 16.666667000000018 z" />
<glyph unicode="r" horiz-adv-x="100" d="M83.333332999999996 0.000000000000000 C74.999999750000029 0.000000000000000 58.333333250000010 0.000000000000000 50.000000000000000 0.000000000000000 C50.000000000000000 8.333333250000010 50.000000000000000 24.999999750000029 50.000000000000000 33.333332999999982 C45.833333250000010 33.333332999999982 37.499999750000029 33.333332999999982 33.333332999999982 33.333332999999982 C33.333332999999982 24.999999750000029 33.333332999999982 8.333333250000010 33.333332999999982 0.000000000000000 C24.999999750000029 0.000000000000000 8.333333250000010 0.000000000000000 0.000000000000000 0.000000000000000 C0.000000000000000 20.833333250000010 0.000000000000000 62.499999750000029 0.000000000000000 83.333332999999982 C18.750000000000000 83.333332999999982 56.250000000000000 83.333332999999982 75.000000000000000 83.333332999999982 C75.000000000000000 81.249999750000001 75.000000000000000 77.083333250000010 75.000000000000000 75.000000000000000 C77.083333250000010 75.000000000000000 81.249999750000029 75.000000000000000 83.333333000000039 75.000000000000000 C83.333333000000039 68.750000000000000 83.333333000000039 56.250000000000000 83.333333000000039 50.000000000000000 C81.249999750000029 50.000000000000000 77.083333250000010 50.000000000000000 75.000000000000000 50.000000000000000 C75.000000000000000 45.833333250000010 75.000000000000000 37.499999750000029 75.000000000000000 33.333332999999982 C77.083333250000010 33.333332999999982 81.249999750000029 33.333332999999982 83.333333000000039 33.333332999999982 C83.333333000000039 24.999999750000029 83.333333000000039 8.333333250000010 83.333333000000039 0.000000000000000 zM50.000000000000000 50.000000000000000 C50.000000000000000 54.166666749999990 50.000000000000000 62.500000249999971 50.000000000000000 66.666667000000018 C45.833333250000010 66.666667000000018 37.499999750000029 66.666667000000018 33.333332999999982 66.666667000000018 C33.333332999999982 62.500000249999971 33.333332999999982 54.166666749999990 33.333332999999982 50.000000000000000 C37.499999750000029 50.000000000000000 45.833333250000010 50.000000000000000 50.000000000000000 50.000000000000000 z" />
<glyph unicode="s" horiz-adv-x="100" d="M83.333332999999996 8.333333000000000 C81.249999750000029 8.333332999999982 77.083333250000010 8.333332999999982 75.000000000000000 8.333332999999982 C75.000000000000000 6.249999749999972 75.000000000000000 2.083333250000010 75.000000000000000 0.000000000000000 C56.250000000000000 0.000000000000000 18.750000000000000 0.000000000000000 0.000000000000000 0.000000000000000 C0.000000000000000 4.166666749999990 0.000000000000000 12.500000249999971 0.000000000000000 16.666667000000018 C12.500000000000000 16.666667000000018 37.500000000000000 16.666667000000018 50.000000000000000 16.666667000000018 C50.000000000000000 20.833333499999981 50.000000000000000 29.166666500000019 50.000000000000000 33.333332999999982 C39.583333250000010 33.333332999999982 18.749999750000029 33.333332999999982 8.333332999999982 33.333332999999982 C8.333332999999982 35.416666500000019 8.333332999999982 39.583333499999981 8.333332999999982 41.666667000000018 C6.249999749999972 41.666667000000018 2.083333250000010 41.666667000000018 0.000000000000000 41.666667000000018 C0.000000000000000 50.000000249999971 0.000000000000000 66.666666749999990 0.000000000000000 75.000000000000000 C2.083333250000010 75.000000000000000 6.249999749999972 75.000000000000000 8.333332999999982 75.000000000000000 C8.333332999999982 77.083333250000010 8.333332999999982 81.249999750000001 8.333332999999982 83.333332999999982 C27.083332999999982 83.333332999999982 64.583333000000039 83.333332999999982 83.333333000000039 83.333332999999982 C83.333333000000039 79.166666499999991 83.333333000000039 70.833333500000009 83.333333000000039 66.666667000000018 C70.833333000000039 66.666667000000018 45.833333000000039 66.666667000000018 33.333332999999982 66.666667000000018 C33.333332999999982 62.500000249999971 33.333332999999982 54.166666749999990 33.333332999999982 50.000000000000000 C43.749999750000029 50.000000000000000 64.583333250000010 50.000000000000000 75.000000000000000 50.000000000000000 C75.000000000000000 47.916666749999990 75.000000000000000 43.750000249999971 75.000000000000000 41.666667000000018 C77.083333250000010 41.666667000000018 81.249999750000029 41.666667000000018 83.333333000000039 41.666667000000018 C83.333333000000039 33.333333499999981 83.333333000000039 16.666666500000019 83.333333000000039 8.333332999999982 z" />
<glyph unicode="t" horiz-adv-x="100" d="M83.333332999999996 66.666667000000004 C77.083333000000039 66.666667000000018 64.583333000000039 66.666667000000018 58.333333000000039 66.666667000000018 C58.333333000000039 50.000000249999971 58.333333000000039 16.666666749999990 58.333333000000039 0.000000000000000 C49.999999750000029 0.000000000000000 33.333333250000010 0.000000000000000 25.000000000000000 0.000000000000000 C25.000000000000000 16.666666749999990 25.000000000000000 50.000000249999971 25.000000000000000 66.666667000000018 C18.750000000000000 66.666667000000018 6.250000000000000 66.666667000000018 0.000000000000000 66.666667000000018 C0.000000000000000 70.833333500000009 0.000000000000000 79.166666499999991 0.000000000000000 83.333332999999982 C20.833333250000010 83.333332999999982 62.499999750000029 83.333332999999982 83.333333000000039 83.333332999999982 C83.333333000000039 79.166666499999991 83.333333000000039 70.833333500000009 83.333333000000039 66.666667000000018 z" />
<glyph unicode="u" horiz-adv-x="100" d="M83.333332999999996 8.333333000000000 C81.249999750000029 8.333332999999982 77.083333250000010 8.333332999999982 75.000000000000000 8.333332999999982 C75.000000000000000 6.249999749999972 75.000000000000000 2.083333250000010 75.000000000000000 0.000000000000000 C58.333333250000010 0.000000000000000 24.999999750000029 0.000000000000000 8.333332999999982 0.000000000000000 C8.333332999999982 2.083333250000010 8.333332999999982 6.249999749999972 8.333332999999982 8.333332999999982 C6.249999749999972 8.333332999999982 2.083333250000010 8.333332999999982 0.000000000000000 8.333332999999982 C0.000000000000000 27.083332999999982 0.000000000000000 64.583332999999982 0.000000000000000 83.333332999999982 C8.333333250000010 83.333332999999982 24.999999750000029 83.333332999999982 33.333332999999982 83.333332999999982 C33.333332999999982 66.666666499999991 33.333332999999982 33.333333499999981 33.333332999999982 16.666667000000018 C37.499999750000029 16.666667000000018 45.833333250000010 16.666667000000018 50.000000000000000 16.666667000000018 C50.000000000000000 33.333333499999981 50.000000000000000 66.666666499999991 50.000000000000000 83.333332999999982 C58.333333250000010 83.333332999999982 74.999999750000029 83.333332999999982 83.333333000000039 83.333332999999982 C83.333333000000039 64.583332999999982 83.333333000000039 27.083332999999982 83.333333000000039 8.333332999999982 z" />
<glyph unicode="v" horiz-adv-x="100" d="M83.333332999999996 8.333333000000000 C81.249999750000029 8.333332999999982 77.083333250000010 8.333332999999982 75.000000000000000 8.333332999999982 C75.000000000000000 6.249999749999972 75.000000000000000 2.083333250000010 75.000000000000000 0.000000000000000 C56.250000000000000 0.000000000000000 18.750000000000000 0.000000000000000 0.000000000000000 0.000000000000000 C0.000000000000000 20.833333250000010 0.000000000000000 62.499999750000029 0.000000000000000 83.333332999999982 C8.333333250000010 83.333332999999982 24.999999750000029 83.333332999999982 33.333332999999982 83.333332999999982 C33.333332999999982 66.666666499999991 33.333332999999982 33.333333499999981 33.333332999999982 16.666667000000018 C37.499999750000029 16.666667000000018 45.833333250000010 16.666667000000018 50.000000000000000 16.666667000000018 C50.000000000000000 33.333333499999981 50.000000000000000 66.666666499999991 50.000000000000000 83.333332999999982 C58.333333250000010 83.333332999999982 74.999999750000029 83.333332999999982 83.333333000000039 83.333332999999982 C83.333333000000039 64.583332999999982 83.333333000000039 27.083332999999982 83.333333000000039 8.333332999999982 z" />
<glyph unicode="w" horiz-adv-x="150" d="M133.333333000000010 8.333333000000000 C131.249999750000029 8.333332999999982 127.083333250000010 8.333332999999982 125.000000000000000 8.333332999999982 C125.000000000000000 6.249999749999972 125.000000000000000 2.083333250000010 125.000000000000000 0.000000000000000 C93.750000000000000 0.000000000000000 31.250000000000000 0.000000000000000 0.000000000000000 0.000000000000000 C0.000000000000000 20.833333250000010 0.000000000000000 62.499999750000029 0.000000000000000 83.333332999999982 C8.333333250000010 83.333332999999982 24.999999750000029 83.333332999999982 33.333332999999982 83.333332999999982 C33.333332999999982 66.666666499999991 33.333332999999982 33.333333499999981 33.333332999999982 16.666667000000018 C37.499999750000029 16.666667000000018 45.833333250000010 16.666667000000018 50.000000000000000 16.666667000000018 C50.000000000000000 33.333333499999981 50.000000000000000 66.666666499999991 50.000000000000000 83.333332999999982 C58.333333250000010 83.333332999999982 74.999999750000029 83.333332999999982 83.333333000000039 83.333332999999982 C83.333333000000039 66.666666499999991 83.333333000000039 33.333333499999981 83.333333000000039 16.666667000000018 C87.499999750000029 16.666667000000018 95.833333250000010 16.666667000000018 100.000000000000000 16.666667000000018 C100.000000000000000 33.333333499999981 100.000000000000000 66.666666499999991 100.000000000000000 83.333332999999982 C108.333333250000010 83.333332999999982 124.999999750000029 83.333332999999982 133.333333000000039 83.333332999999982 C133.333333000000039 64.583332999999982 133.333333000000039 27.083332999999982 133.333333000000039 8.333332999999982 z" />
<glyph unicode="x" horiz-adv-x="100" d="M83.333332999999996 0.000000000000000 C74.999999750000029 0.000000000000000 58.333333250000010 0.000000000000000 50.000000000000000 0.000000000000000 C50.000000000000000 8.333333250000010 50.000000000000000 24.999999750000029 50.000000000000000 33.333332999999982 C45.833333250000010 33.333332999999982 37.499999750000029 33.333332999999982 33.333332999999982 33.333332999999982 C33.333332999999982 24.999999750000029 33.333332999999982 8.333333250000010 33.333332999999982 0.000000000000000 C24.999999750000029 0.000000000000000 8.333333250000010 0.000000000000000 0.000000000000000 0.000000000000000 C0.000000000000000 8.333333250000010 0.000000000000000 24.999999750000029 0.000000000000000 33.333332999999982 C2.083333250000010 33.333332999999982 6.249999749999972 33.333332999999982 8.333332999999982 33.333332999999982 C8.333332999999982 37.499999750000029 8.333332999999982 45.833333250000010 8.333332999999982 50.000000000000000 C6.249999749999972 50.000000000000000 2.083333250000010 50.000000000000000 0.000000000000000 50.000000000000000 C0.000000000000000 58.333333250000010 0.000000000000000 74.999999750000001 0.000000000000000 83.333332999999982 C8.333333250000010 83.333332999999982 24.999999750000029 83.333332999999982 33.333332999999982 83.333332999999982 C33.333332999999982 74.999999750000001 33.333332999999982 58.333333250000010 33.333332999999982 50.000000000000000 C37.499999750000029 50.000000000000000 45.833333250000010 50.000000000000000 50.000000000000000 50.000000000000000 C50.000000000000000 58.333333250000010 50.000000000000000 74.999999750000001 50.000000000000000 83.333332999999982 C58.333333250000010 83.333332999999982 74.999999750000029 83.333332999999982 83.333333000000039 83.333332999999982 C83.333333000000039 74.999999750000001 83.333333000000039 58.333333250000010 83.333333000000039 50.000000000000000 C81.249999750000029 50.000000000000000 77.083333250000010 50.000000000000000 75.000000000000000 50.000000000000000 C75.000000000000000 45.833333250000010 75.000000000000000 37.499999750000029 75.000000000000000 33.333332999999982 C77.083333250000010 33.333332999999982 81.249999750000029 33.333332999999982 83.333333000000039 33.333332999999982 C83.333333000000039 24.999999750000029 83.333333000000039 8.333333250000010 83.333333000000039 0.000000000000000 z" />
<glyph unicode="y" horiz-adv-x="100" d="M83.333332999999996 41.666666999999997 C81.249999750000029 41.666667000000018 77.083333250000010 41.666667000000018 75.000000000000000 41.666667000000018 C75.000000000000000 39.583333499999981 75.000000000000000 35.416666500000019 75.000000000000000 33.333332999999982 C70.833333250000010 33.333332999999982 62.499999750000029 33.333332999999982 58.333333000000039 33.333332999999982 C58.333333000000039 24.999999750000029 58.333333000000039 8.333333250000010 58.333333000000039 0.000000000000000 C49.999999750000029 0.000000000000000 33.333333250000010 0.000000000000000 25.000000000000000 0.000000000000000 C25.000000000000000 8.333333250000010 25.000000000000000 24.999999750000029 25.000000000000000 33.333332999999982 C20.833333250000010 33.333332999999982 12.499999750000029 33.333332999999982 8.333332999999982 33.333332999999982 C8.333332999999982 35.416666500000019 8.333332999999982 39.583333499999981 8.333332999999982 41.666667000000018 C6.249999749999972 41.666667000000018 2.083333250000010 41.666667000000018 0.000000000000000 41.666667000000018 C0.000000000000000 52.083333499999981 0.000000000000000 72.916666499999991 0.000000000000000 83.333332999999982 C8.333333250000010 83.333332999999982 24.999999750000029 83.333332999999982 33.333332999999982 83.333332999999982 C33.333332999999982 74.999999750000001 33.333332999999982 58.333333250000010 33.333332999999982 50.000000000000000 C37.499999750000029 50.000000000000000 45.833333250000010 50.000000000000000 50.000000000000000 50.000000000000000 C50.000000000000000 58.333333250000010 50.000000000000000 74.999999750000001 50.000000000000000 83.333332999999982 C58.333333250000010 83.333332999999982 74.999999750000029 83.333332999999982 83.333333000000039 83.333332999999982 C83.333333000000039 72.916666499999991 83.333333000000039 52.083333499999981 83.333333000000039 41.666667000000018 z" />
<glyph unicode="z" horiz-adv-x="100" d="M83.333332999999996 0.000000000000000 C62.499999750000029 0.000000000000000 20.833333250000010 0.000000000000000 0.000000000000000 0.000000000000000 C0.000000000000000 10.416666749999990 0.000000000000000 31.250000249999971 0.000000000000000 41.666667000000018 C2.083333250000010 41.666667000000018 6.249999749999972 41.666667000000018 8.333332999999982 41.666667000000018 C8.333332999999982 43.750000249999971 8.333332999999982 47.916666749999990 8.333332999999982 50.000000000000000 C18.749999750000029 50.000000000000000 39.583333250000010 50.000000000000000 50.000000000000000 50.000000000000000 C50.000000000000000 54.166666749999990 50.000000000000000 62.500000249999971 50.000000000000000 66.666667000000018 C37.500000000000000 66.666667000000018 12.500000000000000 66.666667000000018 0.000000000000000 66.666667000000018 C0.000000000000000 70.833333500000009 0.000000000000000 79.166666499999991 0.000000000000000 83.333332999999982 C20.833333250000010 83.333332999999982 62.499999750000029 83.333332999999982 83.333333000000039 83.333332999999982 C83.333333000000039 72.916666499999991 83.333333000000039 52.083333499999981 83.333333000000039 41.666667000000018 C81.249999750000029 41.666667000000018 77.083333250000010 41.666667000000018 75.000000000000000 41.666667000000018 C75.000000000000000 39.583333499999981 75.000000000000000 35.416666500000019 75.000000000000000 33.333332999999982 C64.583333250000010 33.333332999999982 43.749999750000029 33.333332999999982 33.333332999999982 33.333332999999982 C33.333332999999982 29.166666500000019 33.333332999999982 20.833333499999981 33.333332999999982 16.666667000000018 C45.833333000000039 16.666667000000018 70.833333000000039 16.666667000000018 83.333333000000039 16.666667000000018 C83.333333000000039 12.500000249999971 83.333333000000039 4.166666749999990 83.333333000000039 0.000000000000000 z" />
</font>
</defs>
</svg>
